<?xml version="1.0" encoding="utf-8"?>
<!-- Generator: Adobe Illustrator 19.0.0, SVG Export Plug-In . SVG Version: 6.00 Build 0)  -->
<svg version="1.1" id="Layer_1" xmlns="http://www.w3.org/2000/svg" xmlns:xlink="http://www.w3.org/1999/xlink" x="0px" y="0px"
	 viewBox="274 -229 647 559" style="enable-background:new 274 -229 647 559;" xml:space="preserve">
<style type="text/css">
	.st0{fill:#FFFFFF;}
	.st1{fill:none;}
	.st2{enable-background:new    ;}
</style>
<g>
	<path d="M888.9-92.9c-0.1,2.8-0.3,5.6-0.4,8.8c0.9-0.3,1.7-0.5,2.1-0.7c-0.6,7.8-1.1,15.6-1.7,23.3c-0.2,0-0.5,0-0.7,0
		c-0.9-5.4-1.7-10.7-2.6-16.1c-0.2,0-0.4,0-0.6,0c0,5.8-2.2,13.1,0.5,17c5.5,7.8-1.4,14.2,1.1,21.1c-0.5,0-1,0.1-1.5,0.1
		c-0.6-4.7-1.1-9.3-1.7-14c-0.3,0-0.6,0.1-0.9,0.1c-7.7,38.1-15.5,76.1-23.2,114.2c-0.6-0.1-1.2-0.2-1.8-0.2
		c-2.4-5.4-2.2-11-0.8-16.7c4.6-19.3,9.2-38.5,13.9-57.7c1.7-7.2-0.3-13.7-3.7-20.8c-1.4,5.7-2.5,10.7-3.8,16
		c1.8-0.5,3.1-0.9,4.2-1.3c-3.6,13.6-7.9,26.9-10.4,40.6c-2.4,13.6-2.9,27.5-4.3,41.8c1,0.2,2.5,0.4,4,0.6
		c-0.4,29.1-18,82.9-32.9,100.5c-0.9-1.4-1.8-2.8-2.8-4.4c7.7-7.6,9.8-17.1,9.9-27.4c0-1.5,0.8-3.7,1.9-4.2c3.7-2,4-5.1,4.4-8.7
		c1.1-9.9,2.4-19.8,3.8-29.7c0.2-1.1,1-2.7,1.9-3.1c5.6-2.8,6.2-7.3,4.6-13.1c-0.7,1.2-1.3,2.2-2.1,3.5c-1.4-1-2.9-1.9-5.8-3.9
		c-0.2,5.3-0.4,9.6-0.5,13.9c-0.1,2.1,0,4.2-0.4,6.2c-1.4,8.6-2.9,17.3-4.4,25.9c-0.2,1,0,2.5-0.5,2.8c-4.7,2.2-4.1,6.9-5.4,10.6
		c-3.4,9.7-6.5,19.5-9.8,29.6c0.2,0,1,0.3,2.4,0.6c-1.8,3.6-3.6,7-5.5,10.9c0.9,1.1,1.8,2.3,3,3.8c-5.7,4.8-12.1,7-19.1,8
		c-16.6,2.4-33.2,4.7-49.8,7.4c-14.9,2.5-52.9,2-68.5-1.7c0,5.9,0,11.5,0,17.1c0.3,28.8,0.4,57.6,1,86.4c0.1,5.6,1.9,11.1,3.1,16.6
		c1.1,4.7-1.6,7.9-6.4,7.3c-2.2-0.2-4.6,0.2-6.6-0.4c-2-0.7-4-2.2-5.6-3.7c-5.4-5.1-10.6-10.4-15.8-15.7c-3-3.1-5.9-6.3-8.8-9.5
		c0.4-0.5,0.9-1.1,1.3-1.6c2.3,1.2,4.7,2.5,8.5,4.5c-2.6-4.8-4.5-8.4-6.8-12.5c-1.6,2.5-2.8,4.4-4.4,6.7c-3.1-4.4-5.9-8.5-9.2-13.2
		c2.1,0.2,3.3,0.3,4.8,0.4c-5.9-14.7-11.8-29.1-17.3-42.8c-0.7,2.4-1.7,5.2-2.7,8.5c-2.4-6.7-4-12.9-6.8-18.4
		c-4.4-8.7-12.1-13.9-21.8-13.4c-12.1,0.7-24.1,2.7-36.1,4.3c-19.6,2.6-39.2,5.6-58.8,7.8c-6.7,0.7-13.6-0.3-20.4-0.8
		c-7.6-0.6-15.2-1.8-22.8-2.4c-12.8-1-22.9-7.7-31.1-16.5c-11.3-12.1-21.4-25.4-32-38.2c0.4-0.4,0.7-0.8,1.1-1.2
		c2.1,0.5,4.3,1,5.9,1.4c-2.2-6-4.5-12-6.6-17.7c-3,3.7-3,4.7,0.5,9.1c-0.9,1.1-1.8,2.3-2.9,3.8c-6.5-12.4-12.8-24.6-19.6-37.5
		c2.1,0.7,3.5,1.1,4.7,1.5c-0.2-1.3-0.4-2.8-0.6-4.7c-5.1,1.7-6.2-2.3-7.5-6.4c-4.7-14.5-9-29.3-14.8-43.4c-4-9.9-9-19.9-15.7-28.2
		c-31-38.6-38.7-83.8-38.7-131.4c0-4.4,0.6-8.8,0.9-14.1c4.5,2.9,3.4,6.7,3.4,9.8c0,9.2-0.7,18.3-0.3,27.5
		c1.3,30.2,9.3,58.7,23.5,86.2c1.1-3.4,2-6.2,3.1-9.5c4.5,10,8.8,19.5,13,29c0.5-0.2,1-0.4,1.4-0.6c-0.9-2.5-1.8-5-2.7-7.5
		c-3.8-9.8-8-19.4-11.2-29.4c-1.5-4.6-1.1-9.7-1.5-14.3c-0.2,0.3-0.9,1.7-1.7,3.1c-0.4-0.2-0.8-0.4-1.2-0.7
		c-1.6-6.6-3.2-13.1-4.8-19.7c-0.5,0.1-1,0.2-1.5,0.4c2.8,12.3,5.6,24.5,8.4,37.1c-0.3,0.1-1.4,0.4-2.8,0.9
		c-6.2-24-14.6-47.1-18.9-71.3c0.6-0.2,1.2-0.3,1.8-0.5c1.5,5.1,2.9,10.2,4.6,15.2c0.4,1.3,1.7,2.3,2.6,3.4c0.3-1.3,1.2-2.7,1-3.9
		c-2.5-16.1-5.2-32.2-7.7-48.3c-1.3-7.9-2.7-15.9-3.5-23.9c-0.3-3.2,0.8-6.6,1.5-9.8c0.8-3.6,1.6-7.3,6.9-6.5
		c1.2,0.2,2.8-1.6,4.1-2.5c24.7-16.1,49.4-32.4,79-38.2c6.5-1.3,13.2-2.5,19.8-2.3c23.2,0.6,45.6-4.5,68.2-8.8
		c1.6-0.3,3.2-0.5,4.8-0.7c0.4,0.4,0.8,0.9,1.1,1.3c-1.8,2-3.7,4-5.3,5.8c15.7-1.8,32.2-3.6,48.6-5.5c0-0.5-0.1-1-0.1-1.5
		c-14-0.2-28.2,5.4-42.1-1.8c10.3-0.4,20.6-1.2,30.9-1.2c17.2,0,34.3,1.5,51.4,0.6c21.4-1.1,42.8-3.4,64.1-6.2
		c21-2.8,42-4.5,63.2-3.7c27.7,1.1,55.2-1.3,82.8-4.2c16.4-1.7,32.8-2.8,49.6-4.2c-0.2-1.1-0.4-2.6-0.9-5.5
		c12.1,4.6,23.2,8.5,34.2,13c13.9,5.7,22,16.6,26.3,30.8c7.1,23.2,7.7,46.8,6.5,70.7c-0.2,4-0.6,7.9-0.9,11.8c-1.1,0-2,0-2.9,0
		c-0.8-2.8-2.4-5.8-2.2-8.5c0.9-11.2,3.4-22.4,3.4-33.6c-0.1-20.1-4.8-39.3-16.2-56.3c-5.6-8.4-13-14.6-24.8-17
		c13,10.4,20.4,22.8,24.3,36.9c-1.8,0.6-3.2,1.1-4.5,1.5c0.2,0.5,0.3,1,0.5,1.5c1.8-0.2,3.5-0.5,5.9-0.8c-0.4,3.9-0.8,7.5-1.2,11
		c-1.5,0.2-2.7,0.3-4.5,0.5c1.5,2.2,2.9,3.6,3.8,5.4c1.5,2.8,3.7,5.7,3.8,8.6c0.8,22.5,1.2,44.9,1.9,67.4c0.1,5,0.7,9.9,1.4,14.9
		c0.2,1.1,1.6,2.1,2.4,3.2c0.5-0.3,1.1-0.6,1.6-1c-5.2-5.3-4.1-11.4-2.9-17.5c0.7-3.8,1.9-7.5,2-11.3
		C883.5-91.8,885.4-92.9,888.9-92.9z M380.7,89.4c-2.8,0.9-5.5,1.7-8.3,2.6c3,8.3,5,9.7,11.1,7.9c1.5,3.4,3.1,6.8,4.6,10.2
		c0.4-2.2-0.1-4.1-0.9-5.8C385.1,99.3,382.9,94.3,380.7,89.4c0.2-0.8,0.2-1.7,0.6-2.4c4.9-8.8,10.2-17.5,14.7-26.5
		c4.1-8.3,7.1-17.2,11.2-25.6c2.4-4.8,5.8-9.2,8.8-13.7c0.4,0.2,0.7,0.5,1.1,0.7c-0.7,1.7-1.4,3.3-2.1,5
		c-9.1,20.2-18.3,40.3-27.3,60.5c-0.7,1.6-1.3,4.1-0.6,5.4c2.1,3.7,4.9,7,7.9,11.2c7.6-19,10.2-39.4,25.3-54
		c-6.5,15.6-13,30.7-19.2,45.9c-2.5,6-4.8,12.2-0.1,18.7c-2.1,0.6-3.6,1-5.6,1.5c1.5,2.7,2.8,5.1,4.5,8.2c2.3-3.9,4.5-6.9,5.9-10.2
		c5.3-12.8,10.1-25.7,15.4-38.4c1.6-3.9,4.5-7.3,6.8-10.9c0.5,0.3,1.1,0.6,1.6,0.9c-2.4,5.4-5,10.7-7.2,16.2
		c-4.9,12-9.7,24-14.4,36.1c-2.6,6.5,1.1,11.2,5,16.7c1.3-2.7,2.3-4.6,3.1-6.6c5.9-15,11.8-30,17.8-45c0.7-1.8,2.1-3.4,3.1-5
		c0.6,0.3,1.2,0.6,1.8,0.9c-7.3,19.2-14.6,38.4-21.9,57.7c1,0.7,1.7,1.2,2.4,1.6c1.1,0.6,2.3,1.2,3.8,2.1
		c8.5-19.2,12.9-40.3,27.8-56.1c-1.1,3.6-2.8,7-4.3,10.5c-6.5,14.9-13,29.9-19.4,44.9c-0.6,1.4-0.7,4.1,0.2,4.8
		c8.3,7.4,16.9,14.4,25.8,22c3.2-7.7,6.1-14.7,9.5-22.9c-3.4,2.6-5.8,4.3-8.2,6.2C465,131,475.4,112.5,485.8,94
		c0.1,4.7,0,9.5-1.8,13.6c-8,18.1-16.7,35.8-24.7,53.9c-3.9,8.8-3.2,10,4.1,16.6c1.1,1,2.2,1.8,3.3,2.7c8.4-20.1,16.7-39.9,25-59.7
		c0.6,0.2,1.3,0.5,1.9,0.7c-0.6,2.3-0.9,4.7-1.8,6.9c-4.1,10-8.3,20-12.6,29.9c-1.2,2.8-1.8,5.1,1,7.5c0.8,0.7,0.6,3.3,0,4.6
		c-2.4,5.4-5.2,10.6-8.2,16.6c8.1,2.4,15.2,4.5,22.6,6.7c9.8-22,15.1-45.1,28.2-64.8c0.5,0.2,0.9,0.4,1.4,0.5c-4,10-8,19.9-12,29.9
		c3.6-3.2,5.8-7.1,8.8-10.4c3.1-3.4,6.6-6.5,10.3-9.3c3.4-2.6,7.2-4.7,10.8-7c-2.6,5.2-5.8,9.6-8.8,14.2c-2.9,4.5-5.8,8.9-8.4,13.6
		c-2.6,4.8-4.6,10-7.2,14.8c-2.5,4.6-5.4,9-8.1,13.4c-0.5-0.3-1-0.6-1.6-0.9c4.8-10.7,9.6-21.3,14.3-32
		c-10.5,10.5-16.3,23.7-22.9,37.2c7.6,0,14.2-0.3,20.9,0.1c4.2,0.2,6.5-1,8.4-4.9c6.8-13.3,14-26.4,21.2-39.6
		c1.2-2.2,2.7-4.2,4.2-6.2s3-4,4.6-5.9c1.5-1.8,3.2-3.4,4.8-5.1c-10.4,20.9-23.7,39.9-33.6,61.6c4.4,0,8-0.4,11.4,0.1
		c4,0.6,5.8-1.1,7.5-4.6c7-13.8,14.3-27.4,21.8-41c2.4-4.4,5.8-8.2,8.7-12.3c-0.3,4.7-0.5,8.6-4,12.5c-5.3,6-8.9,13.6-12.8,20.8
		c-3.8,7.1-7.1,14.5-11.3,23.1c7.5-2.5,13.4-4.5,19.8-6.6c0,1.7,0,2.9,0,4.2c11.8-19.5,15.9-43,34-58.6
		c-8.9,16.7-17.8,33.4-27.2,51.2c4.8-0.4,7.7-0.7,11.7-1.1c-2.8,3.9-4.9,6.9-7.2,10.1c7.6-0.3,8-0.1,11.1-6.1
		c4.9-9.6,9.1-19.6,14-29.2c2.9-5.7,6.4-11,9.7-16.5c0.7,0.4,1.3,0.7,2,1.1c-7.7,16.3-15.4,32.5-23.1,48.6
		c10.4,0.4,11.5-0.3,16.2-9.5c5.3-10.4,10.8-20.6,16.3-30.9c0.8-1.6,2.2-2.8,3.3-4.2c-0.6,4.8-3.7,9.2,2,13.1
		c4.3-7.4,6.8-16.1,15.9-21.7c-11,20-21.3,38.7-31.6,57.5c-0.7-0.3-1.4-0.7-2-1c3.7-7.7,7.3-15.5,11.3-23.1c2.1-3.8,1.2-6-2.2-8.1
		c-2.7,5.1-5.7,9.8-7.8,14.9c-2.1,5.3-3.5,11-5,16.6c-0.8,3,0.7,5.1,3.3,7.1c2.1,1.7,3.6,4.6,4.6,7.2c4.8,12.7,8.7,25.8,14.3,38.2
		c4.1,9.1,10.2,17.2,15.8,26.2c2.1-3,3.4-4.7,4.4-6.1c2.7,6.5,5.8,12.6,7.7,19c2.3,7.5,9.7,8.9,15.2,13.3
		c-2.2-9.9-4.4-19.9-6.6-29.8c-0.7,0.2-1.5,0.4-2.2,0.6c1.4,4.5,2.5,9.1,4.4,13.4c1.4,3.2,0.4,6.3-4.3,8.2c-1.2-5.4-3-10.7-3.3-16
		c-1.1-19.1-1.6-38.2-2.3-57.3c-0.3-8.5-0.6-17,5.2-24.3c0.1-0.1-0.2-0.5-0.5-1.2c-3.8,0.4-7.8,0.7-11.7,1.3c-1,0.2-2.5,1.3-2.7,2.2
		c-2.3,10.1-4.4,20.1-2.7,30.6c0.8,5,1.3,10.1,1.5,15.1c0.2,7.2,0.1,14.5,0.1,21.7c-1.5-0.6-2.8-1.8-2.9-3.1
		c-0.8-7.1-1.7-14.3-1.8-21.4c-0.1-12.6,0.1-25.2,0.7-37.8c0.3-5.9,4.2-9.7,9.8-11.4c4.3-1.2,8.7-2.2,13.2-2.8
		c3.8-0.5,5.8-2.1,7.7-5.7c12.5-23.5,25.4-46.8,38.2-70.1c1.3-2.3,2.9-4.4,4.6-6.6c1.5-2,3.2-3.8,4.8-5.7
		c-12.2,29-32.3,53.8-43.6,83.4c7.7,0.8,12.4-1.1,15.6-8.6c6.1-14.3,13.6-28.1,21.2-43.7c1.4,2.6,2.2,4,3.2,5.9
		c2.7-4.1,4.7-7.4,7-10.4c2.2-2.9,4.9-5.4,7.4-8.1c0.4,0.3,0.7,0.6,1.1,0.9c-13,21.5-29.1,41.1-41,64.1c17.1,0.5,33.2,1.1,49.3,1.3
		c15.1,0.1,29.9-1.9,44-7.6c5-2.1,10.8-3.4,8.5-11.7c0.5,0,1,0.1,1.5,0.1c2.6,2.4,5.1,4.8,7.7,7.2c2.3-2.1,4.7-4.3,7.4-6.7
		c-1.9,0.5-3.5,1-5.2,1.5c-1.3-14.4,8-25.6,9.3-38.8c-1.2,1.4-2.1,2.9-2.7,4.6c-3.3,9.1-6.5,18.1-9.8,27.2c-0.7,2-1.6,4.7-4.4,3
		c-2.5-1.5-3.5-3.8-1.6-6.8c1-1.6,1.9-3.4,2.2-5.3c1.1-5.6,1.7-11.2,2.9-16.7c0.8-3.7,0.2-8.8,6.2-9.3c0.6-0.1,1.2-1.5,1.5-2.4
		c2.2-6.4,4.7-12.8,6.5-19.4c2.1-7.7,1.8-12.8-0.2-16.8c-0.5,1.2-1.1,2.2-1.4,3.3c-2.3,9-4.5,18-6.9,27c-0.4,1.4-1.6,2.5-2.4,3.7
		c-0.8-1.4-2.1-2.6-2.4-4.1c-0.5-2.2-0.4-4.6-0.7-7.7c-2.5,2.1-4.2,3.5-5.8,4.9c-0.3-0.2-0.7-0.5-1-0.7c2.9-6.5,5.9-12.9,8.5-19.5
		c4.4-11.1,9.5-22.1,12.4-33.6c4.3-16.6,6.4-33.7,10.3-50.4c9.9-43.2,13.7-87.1,15.3-131.3c0.5-15.1-1.6-29.8-8.5-43.7
		c-3.4-6.8-8.4-9.5-15.6-9.1c-5.6,0.3-11.3,1-16.9,1.1c-20.2,0.3-40.3-0.2-60.5,0.6c-35.6,1.3-71,5.6-106.8,3.8
		c-26.7-1.3-53.2,3.2-79.4,8.1c-43.9,8.2-88.3,10.4-132.8,9.7c-0.5,0-1-0.2-1.6-0.3c0-0.5-0.1-1-0.1-1.5c4.7-0.7,9.3-1.9,14-2.1
		c10-0.4,20.1,0.6,30-0.5c38.6-4.1,77-9,115.6-13.1c18.2-1.9,36.5-2.9,54.7-3.7c14.1-0.6,28.3,0.1,42.5-0.6
		c16.3-0.8,32.5-3.2,48.8-3.7c21-0.7,41.9,0,62.9-0.2c9.7-0.1,19.4-1.2,29.1-1.8c0.1-0.5,0.2-1,0.2-1.5c-2.4-1.3-4.8-2.8-7.3-4
		c-10.7-4.9-22.1-6.1-33.6-6.1c-26.3-0.1-52.6,0.2-78.9-0.1c-18.9-0.2-37.5,1.9-56,5.5c-12.2,2.4-24.8,4.2-37.1,3.8
		c-31.5-1.1-62.4,3.2-93.4,8.2c-15.3,2.4-30.2,8.7-44.8,5.6c-1.4,1.6-2.1,3.1-3.3,3.6c-1.4,0.5-3.1,0-4.7,0c0.5-1.6,1-3.1,1.5-4.9
		c-1.3-0.1-2.9-0.3-4.6-0.5c-0.2,1.5-0.4,2.6-0.6,3.7c-5.1-0.3-9.7-0.6-14.3-0.8c0,0.4-0.1,0.7-0.1,1.1c4.5,0.6,9,1.1,13.4,1.7
		c0,0.5,0,1,0,1.4c-9.7,1.9-19.4,3.9-29.3,5.9c-1.8-6.6,5.6-3.7,7-7.4c-4.8,0.9-9.2,1.7-13,2.4c0.2,2.7,0.4,4.7,0.6,6.8
		c-2.6,0.7-4.6,1.5-6.8,1.8c-16,2.2-32,4.3-48,6.3c-10.2,1.3-20.6,1.9-30.1,6.6c-1.2,0.6-3.1-0.1-4.7-0.1c0.2-1.8-0.2-4,0.7-5.3
		c1.2-1.8,3.4-3.1,5.1-4.5c-2.8,0.5-6.1,1.4-7.2,3.5c-2.9,5.3-4.8,11.1-7.2,16.9c1.5-0.6,2.8-1.2,4.5-1.9
		c-2.3,6.6-4.4,12.7-6.4,18.6c-6.9-5.6-6.4-14.5-8.9-22.1c-0.8,6.7-1.6,13.4-2.6,21.3c-2.1-2.1-3.9-3.9-6.2-6.1
		c0.6,6.2,1.2,11.8,1.8,18.4c2.1-4.1,3.2-7.4,5.2-9.8c1.1-1.3,3.8-1.7,5.7-1.7c0.6,0,1.5,2.8,1.7,4.4c0.4,3.3,0,6.8,0.8,9.9
		c2.8,10.2,6.2,20.3,9.1,30.5c5.8,20.7,11.4,41.4,17.1,62.1c0.4,1.3,0.8,2.6,1.2,3.9c0.4,0,0.8,0,1.2,0c3.6-15,7.1-30,10.7-45
		c0.4,0.1,0.8,0.1,1.2,0.2c0,3,0.6,6.1-0.1,8.9c-2.7,11.5-6,22.8-8.5,34.3c-1.4,6.6-1.6,13.5-2.4,20.3c0.9,0.2,1.9,0.5,2.8,0.7
		c6.8-17.3,13.5-34.5,20.3-51.8c0.6,0.2,1.2,0.4,1.8,0.7c-0.4,1.5-0.6,3.2-1.1,4.6c-6.1,16-11.8,32.2-18.5,47.9
		c-2.9,6.8-1.6,12.3,1.3,19c3.4-10.9,6.3-21,9.8-31c3.5-10.1,8.1-19.6,15-27.9c-0.2,1.7-0.7,3.2-1.2,4.7
		c-6.8,18.2-13.5,36.5-20.6,54.6c-2.9,7.2-0.1,12.7,3.7,18.7c9.7-21.5,17.7-43.5,31.2-62.6c0.2,1.1,0,2.1-0.4,3
		c-4.3,9.6-8.6,19.1-12.9,28.6c-4.8,10.6-9.5,21.3-14.4,31.8c-1.4,3.1-0.8,5.6,1.1,8.3c3.6,5,7.1,10.1,10.6,15.1
		c2.3,3.2,1.3,6.7-3.3,8.9C377.6,88.2,379.1,88.8,380.7,89.4z M843.9,19.1c0.9-0.1,1.8-0.2,2.6-0.3c-1.9-4.5,2.5-8.9-1-13.6
		c-0.5-0.7,0.3-2.4,0.6-3.7c2-8.7,4.7-17.3,5.9-26.1c2-14.3,2-29,4.9-43.1c5.6-26.7,5.2-53.5,2.9-79.6c-0.3,0.6-1.2,2-2.3,3.8
		c-3.8-13.9-9.9-25.5-21.3-33.8c11,17,13,36.1,12.7,55.5C848.2-74,841.8-27,831.4,19.6c-2.8,12.3-5.1,24.7-7.6,37.1
		c1.6,0.9,2.9,1.6,4.2,2.3c-1.5,3-3.1,5.8-4.4,8.6c-1.1,2.4-3.3,5.1-2.8,7.2c1.2,5.5,3.6,10.8,5.7,16.7c6.5-16,11-31.9,11.6-48.9
		c-1.5,3.4-3,6.7-5,11.1c-1.5-2.2-3.6-4-3.3-5.2c1.3-5.7,3.2-11.3,5.2-17.9c1.8,2.2,2.9,3.5,4.3,5.2c1.9-5.4,3.6-10.3,5.5-15.7
		c-1.8-0.1-3-0.2-4.5-0.3c0.3,2.8,0.6,5.1,0.8,7.6c-2.8,0.4-5,0.7-7.2,1c2.9-6.3,5.7-12.5,8.8-19.2
		C843.2,13.3,843.5,16.2,843.9,19.1z M323.4-76.7c-0.6,0.2-1.3,0.3-1.9,0.5c3.1,18.4,6.1,36.7,9.2,55.6c2.9-1.3,4.4-2,6.4-2.9
		c-4.1,12.9,3.2,22.1,8.4,31.8C341.1-20.9,333.6-49.1,323.4-76.7z M863.2-156c-0.4-5.3,1-11.2-5.3-14c-2.5-1.1-4.9-3.1-6.4-5.4
		c-8.1-12-22.9-18.8-35.7-15.2c6.3,3.7,12.7,7.9,19.6,9.8c9,2.4,14.5,7.6,17.8,15.8c1.5,3.7,2.9,7.5,4.7,12.3c0.6-3.4,1-5.5,1.5-8.3
		C860.9-159,862.1-157.5,863.2-156z M460.1,183.1c0.3-0.6,0.5-1.1,0.8-1.7c-13.5-15.7-30.9-30.9-38.7-33.9
		c2.2,8.4,15.2,25.4,25.5,33.2c0.5-1.5,0.9-3,1.2-4.1C452.8,179,456.5,181.1,460.1,183.1z M855.6-193.9c0.3-0.6,0.6-1.2,0.9-1.7
		c-4.6-3.8-9.1-7.7-13.8-11.4c-0.8-0.6-2.2-0.9-3.2-0.8c-17.2,1.6-34.3,3.2-51.2,6.8c-0.3,0.1-0.5,0.3-1.3,0.9
		c15,0.6,29.4,1.1,43.8,1.7c0-0.5,0.1-1,0.1-1.5c-4.9-0.8-9.8-1.6-14.8-2.4c7.8-2.1,15.2-3.9,22.8,1.4
		C843.7-197.5,850-196.1,855.6-193.9z M367.3-165.3c0.1,0.7,0.2,1.4,0.2,2.2c6-1.2,12.1-2.4,18.1-3.6c-0.1-0.5-0.2-1.1-0.2-1.6
		c-1.7-0.2-3.4-0.4-5.1-0.5c-0.2-0.5-0.5-1-0.7-1.4c1.4-1,2.7-2.6,4.2-2.9c8.8-1.6,17.7-2.8,26.5-4.2c-14.6-0.3-28.9,0.8-43.1,6.8
		c4.5,0.9,8.1,1.7,11.7,2.5c0,0.4-0.1,0.8-0.1,1.3C375-166.3,371.1-165.8,367.3-165.3z M392,132.2c-0.5,0.3-1,0.6-1.5,0.9
		c5.4,15.6,12,30.6,24.4,42.3C407.2,161,399.6,146.6,392,132.2z M359.5,82c-0.4,0.2-0.8,0.4-1.1,0.6c3,11.1,14.2,29.3,21.5,32.6
		C373.1,104.1,366.3,93.1,359.5,82z M675.6,249.8c0.3,0,0.6,0,0.8,0c0-16.6,0-33.3,0-49.9c-0.3,0-0.6,0-0.8,0
		C675.6,216.5,675.6,233.1,675.6,249.8z M643.6-197.4c0.3,0.5,0.6,0.9,0.9,1.4c10.7-1.1,21.5-2.2,32.2-3.2c-0.6-1.7-1.3-2.5-1.9-2.4
		c-9.6,0.7-19.3,1.4-28.9,2.3C645.1-199.3,644.4-198.1,643.6-197.4z M548.5,204.2c0.1,0.5,0.2,1.1,0.3,1.6
		c8.8-1.3,17.5-2.6,26.3-3.9c-0.1-0.6-0.2-1.1-0.3-1.7C565.6,198.7,557.1,201.4,548.5,204.2z M417.2,140.5c-1.7,2.6-3.1,4.6-4.2,6.8
		c-0.5,1-0.8,2.9-0.3,3.4c3.2,3.3,6.6,6.3,10.7,10.1c-2.8-4.6-5.1-8.3-7.5-12.1c1.9-1.3,3.4-2.4,5.2-3.6
		C419.8,143.5,418.8,142.3,417.2,140.5z M594.9,202.8c5.2,3.3,10.3,6.6,16.1,10.3C603.8,200.2,603,199.7,594.9,202.8z M403.5,131.3
		c-1.1,6.4,0,8.9,5.1,11.5C412.3,138.4,410.2,133.3,403.5,131.3z M457.7,195.8c0.1-0.6,0.2-1.1,0.4-1.7c-1.9-1.3-3.6-2.9-5.6-3.7
		c-0.8-0.3-2.2,1.2-3.4,2c1.5,1.6,2.9,3.6,4.7,4.8C454.5,197.6,456.3,196.3,457.7,195.8z M388.2,127c0.6-0.4,1.3-0.8,1.9-1.2
		c-1.4-2.2-2.8-4.4-4.2-6.6c-0.9,0.6-2.6,1.2-2.6,1.9C383.1,124.5,384.9,126.5,388.2,127z M870.6-135.6c1.8-3.8,3.3-7-1.2-10.5
		C867.7-142.3,866-139.1,870.6-135.6z M807.1,178.3c-4.2-2.2-4.2-2.2-5.8,1.8C805.4,182.3,805.4,182.3,807.1,178.3z"/>
	<path d="M680.9,322c-3.4,2.3-5.5,3.9-7.7,5.1c-0.9,0.5-2.5,0.3-3.4-0.2c-7.7-4.6-16.2-16.3-17.9-25.5c4.2,5.1,8.7,10,12.6,15.3
		c3,4.1,6.2,6.7,11.5,5.3C677,321.7,678.2,322,680.9,322z"/>
	<path d="M620.5,239.9c2.7,9.3,5.2,17.9,8,27.7C620.8,258.9,616.5,244.6,620.5,239.9z"/>
	<path class="st0" d="M565.9,176.1c0.6,0,1.2,0,1.8,0c8.8-21,24.2-38.6,30.8-60.8c-4,5.1-7.5,10.5-10.7,16
		c-7.4,12.9-14.8,25.8-21.9,38.8C565.2,171.7,565.9,174.1,565.9,176.1z M779,170.3c0.6,0.2,1.1,0.5,1.7,0.7
		c11.1-18.2,20.2-37.2,25.9-57.8c-0.5-0.2-1.1-0.5-1.6-0.7C796.4,131.7,787.7,151,779,170.3z M672.7,167.3
		c13.9-15.6,17.1-35.7,24.3-54.3c-1.7,0.5-2.9,1.5-3.5,2.8c-4.2,10.1-8.2,20.3-12.3,30.4C678.4,153.2,675.6,160.2,672.7,167.3z
		 M720.9,159.8c0.4,0.3,0.9,0.5,1.3,0.8c11.9-11.5,31.7-43.6,32.1-53.1C742.8,125.5,731.8,142.7,720.9,159.8z M412.6-4.2
		c-0.7-0.3-1.4-0.6-2.1-0.9c-8.1,15.5-15.4,31.3-20.1,48.3c0.7,0.3,1.4,0.6,2.1,0.9C399.2,28,405.9,11.9,412.6-4.2z M648.3,166.8
		c-0.6-0.3-1.2-0.5-1.8-0.8c-7.4,14.7-14.8,29.3-22.3,44c0.5,0.3,1,0.5,1.6,0.8C636.3,197.7,643.3,182.7,648.3,166.8z M767,117.3
		c-0.6-0.4-1.2-0.9-1.7-1.3c-9,13.5-18.1,27-27.1,40.6c0.5,0.3,1,0.7,1.5,1C751.6,146.1,759.6,131.9,767,117.3z M766.9,156.4
		c0.6,0.4,1.1,0.7,1.7,1.1c7.7-11.5,15.4-23,23.2-34.6c-0.5-0.3-0.9-0.6-1.4-1C779.8,131.7,772.6,143.6,766.9,156.4z M632.9,216.9
		c0.5,0.2,1,0.4,1.5,0.7c6.3-7,12.4-22.9,10.9-31.2C641.2,196.5,637.1,206.7,632.9,216.9z M767.9,139.6c0.4,0.1,0.9,0.1,1.3,0.2
		c2.1-6.9,4.2-13.8,6.4-20.8c-0.4-0.1-0.9-0.3-1.3-0.4C768.8,124.6,766.6,131.6,767.9,139.6z M645.5,225.2c-2.4-1.3-4.1-2.7-4.6-2.3
		c-1.8,1.1-3.1,2.9-4.6,4.4c1.1,0.9,2.7,2.8,3.2,2.5C641.4,229,642.9,227.3,645.5,225.2z"/>
	<path class="st0" d="M843.9,19.1c-0.3-2.9-0.7-5.8-1.1-9.6c-3.1,6.7-5.9,12.9-8.8,19.2c2.1-0.3,4.4-0.6,7.2-1
		c-0.3-2.5-0.5-4.9-0.8-7.6c1.4,0.1,2.7,0.2,4.5,0.3c-1.9,5.4-3.6,10.3-5.5,15.7c-1.4-1.7-2.5-3-4.3-5.2c-2,6.6-3.9,12.2-5.2,17.9
		c-0.3,1.2,1.8,3,3.3,5.2c2-4.4,3.5-7.8,5-11.1c-0.6,17-5.1,32.9-11.6,48.9c-2.1-5.9-4.5-11.2-5.7-16.7c-0.5-2.1,1.7-4.8,2.8-7.2
		c1.4-2.8,2.9-5.6,4.4-8.6c-1.4-0.8-2.6-1.5-4.2-2.3c2.5-12.4,4.9-24.8,7.6-37.1C842-26.7,848.4-73.7,849-121.5
		c0.3-19.5-1.7-38.5-12.7-55.5c11.3,8.4,17.5,19.9,21.3,33.8c1.1-1.8,2-3.3,2.3-3.8c2.3,26.1,2.7,52.9-2.9,79.6
		c-2.9,14.1-2.9,28.8-4.9,43.1c-1.3,8.8-3.9,17.4-5.9,26.1c-0.3,1.2-1.1,3-0.6,3.7c3.5,4.6-0.9,9.1,1,13.6
		C845.6,19,844.7,19.1,843.9,19.1z"/>
	<path class="st0" d="M888.9-92.9c-3.5-0.1-5.4,1.1-5.5,5.2c-0.1,3.8-1.2,7.5-2,11.3c-1.2,6.1-2.3,12.2,2.9,17.5
		c-0.5,0.3-1.1,0.6-1.6,1c-0.8-1.1-2.3-2-2.4-3.2c-0.7-4.9-1.2-9.9-1.4-14.9c-0.6-22.5-1-44.9-1.9-67.4c-0.1-2.9-2.3-5.8-3.8-8.6
		c-0.9-1.7-2.2-3.2-3.8-5.4c1.8-0.2,3-0.3,4.5-0.5c0.4-3.5,0.7-7.1,1.2-11c-2.3,0.3-4.1,0.5-5.9,0.8c-0.2-0.5-0.3-1-0.5-1.5
		c1.3-0.5,2.6-0.9,4.5-1.5c-3.8-14.2-11.2-26.6-24.2-37c11.8,2.4,19.2,8.6,24.8,17c11.4,17,16.1,36.2,16.2,56.3
		c0,11.2-2.5,22.4-3.4,33.6c-0.2,2.8,1.4,5.7,2.2,8.5C888.8-92.7,888.9-92.9,888.9-92.9z"/>
	<path class="st0" d="M323.4-76.7c10.2,27.5,17.8,55.8,22.2,84.9c-5.2-9.7-12.5-18.9-8.4-31.8c-2,0.9-3.5,1.6-6.4,2.9
		c-3.1-18.8-6.2-37.2-9.2-55.6C322.1-76.4,322.7-76.5,323.4-76.7z"/>
	<path class="st0" d="M863.2-156c-1.2-1.5-2.3-3-3.9-5.1c-0.5,2.8-0.9,5-1.5,8.3c-1.9-4.9-3.2-8.6-4.7-12.3
		c-3.4-8.1-8.9-13.3-17.8-15.8c-7-1.9-13.3-6-19.6-9.8c12.8-3.6,27.6,3.2,35.7,15.2c1.5,2.2,4,4.3,6.4,5.4
		C864.2-167.1,862.8-161.3,863.2-156z"/>
	<path class="st0" d="M460.1,183.1c-3.7-2.1-7.4-4.2-11.2-6.3c-0.3,1-0.8,2.6-1.2,4.1c-10.2-7.9-23.2-24.8-25.5-33.2
		c7.9,3,25.3,18.2,38.7,33.9C460.7,182,460.4,182.6,460.1,183.1z"/>
	<path class="st0" d="M855.6-193.9c-5.6-2.3-11.9-3.7-16.8-7c-7.6-5.3-15-3.4-22.8-1.4c4.9,0.8,9.8,1.6,14.8,2.4
		c0,0.5-0.1,1-0.1,1.5c-14.4-0.6-28.8-1.1-43.8-1.7c0.8-0.6,1.1-0.9,1.3-0.9c16.9-3.6,34.1-5.2,51.2-6.8c1-0.1,2.4,0.2,3.2,0.8
		c4.7,3.7,9.2,7.6,13.8,11.4C856.2-195,855.9-194.4,855.6-193.9z"/>
	<path class="st0" d="M367.3-165.3c3.8-0.5,7.7-1,11.5-1.5c0-0.4,0.1-0.8,0.1-1.3c-3.6-0.8-7.2-1.5-11.7-2.5
		c14.2-6,28.5-7.1,43.1-6.8c-8.8,1.4-17.7,2.6-26.5,4.2c-1.5,0.3-2.8,1.9-4.2,2.9c0.2,0.5,0.5,1,0.7,1.4c1.7,0.2,3.4,0.4,5.1,0.5
		c0.1,0.5,0.2,1.1,0.2,1.6c-6,1.2-12.1,2.4-18.1,3.6C367.5-163.8,367.4-164.5,367.3-165.3z"/>
	<path class="st0" d="M392,132.2c7.6,14.4,15.2,28.8,22.9,43.2c-12.4-11.7-18.9-26.7-24.4-42.3C391,132.8,391.5,132.5,392,132.2z"/>
	<path class="st0" d="M359.5,82c6.8,11.1,13.5,22.1,20.3,33.2c-7.3-3.3-18.4-21.5-21.5-32.6C358.8,82.4,359.1,82.2,359.5,82z"/>
	<path class="st0" d="M675.6,249.8c0-16.6,0-33.3,0-49.9c0.3,0,0.6,0,0.8,0c0,16.6,0,33.3,0,49.9
		C676.2,249.8,675.9,249.8,675.6,249.8z"/>
	<path class="st0" d="M643.6-197.4c0.8-0.7,1.6-1.9,2.4-2c9.6-0.9,19.2-1.6,28.9-2.3c0.6,0,1.3,0.7,1.9,2.4
		c-10.7,1.1-21.5,2.2-32.2,3.2C644.2-196.5,643.9-197,643.6-197.4z"/>
	<path class="st0" d="M380.7,89.4c2.2,4.9,4.5,9.9,6.6,14.8c0.8,1.8,1.2,3.7,0.9,5.8c-1.5-3.4-3.1-6.8-4.6-10.2
		c-6.1,1.8-8.1,0.4-11.1-7.9C375.1,91.1,377.9,90.3,380.7,89.4L380.7,89.4z"/>
	<path class="st0" d="M548.5,204.2c8.6-2.7,17.1-5.5,26.3-3.9c0.1,0.6,0.2,1.1,0.3,1.7c-8.8,1.3-17.5,2.6-26.3,3.9
		C548.7,205.3,548.6,204.7,548.5,204.2z"/>
	<path class="st0" d="M417.2,140.5c1.6,1.8,2.7,3.1,4,4.6c-1.8,1.2-3.4,2.3-5.2,3.6c2.3,3.8,4.6,7.5,7.5,12.1
		c-4.1-3.8-7.5-6.8-10.7-10.1c-0.5-0.6-0.2-2.4,0.3-3.4C414.1,145.1,415.5,143.1,417.2,140.5z"/>
	<path class="st0" d="M594.9,202.8c8.1-3.1,8.9-2.6,16.1,10.3C605.2,209.4,600.1,206.1,594.9,202.8z"/>
	<path class="st0" d="M403.5,131.3c6.7,2,8.9,7.1,5.1,11.5C403.4,140.2,402.3,137.8,403.5,131.3z"/>
	<path class="st0" d="M457.7,195.8c-1.3,0.5-3.2,1.8-3.9,1.3c-1.8-1.2-3.2-3.1-4.7-4.8c1.1-0.7,2.6-2.2,3.4-2c2,0.8,3.8,2.4,5.6,3.7
		C457.9,194.6,457.8,195.2,457.7,195.8z"/>
	<path class="st0" d="M388.2,127c-3.3-0.5-5.1-2.5-5-5.9c0-0.6,1.7-1.2,2.6-1.9c1.4,2.2,2.8,4.4,4.2,6.6
		C389.4,126.2,388.8,126.6,388.2,127z"/>
	<path class="st0" d="M870.6-135.6c-4.6-3.4-2.8-6.7-1.2-10.5C873.9-142.7,872.4-139.4,870.6-135.6z"/>
	<path class="st0" d="M807.1,178.3c-1.7,4-1.7,4-5.8,1.8C802.9,176.1,802.9,176.1,807.1,178.3z"/>
	<path d="M565.9,176.1c0-2-0.7-4.4,0.1-5.9c7.1-13,14.5-25.9,21.9-38.8c3.2-5.6,6.7-11,10.7-16c-6.6,22.1-22,39.7-30.8,60.8
		C567.1,176.1,566.5,176.1,565.9,176.1z"/>
	<path d="M779,170.3c8.7-19.3,17.3-38.5,26-57.8c0.5,0.2,1.1,0.5,1.6,0.7c-5.7,20.6-14.8,39.6-25.9,57.8
		C780.2,170.8,779.6,170.5,779,170.3z"/>
	<path d="M672.7,167.3c2.8-7,5.7-14.1,8.5-21.1c4.1-10.2,8.1-20.3,12.3-30.4c0.5-1.3,1.8-2.2,3.5-2.8
		C689.9,131.6,686.7,151.7,672.7,167.3z"/>
	<path d="M720.9,159.8c11-17.2,21.9-34.3,33.4-52.3c-0.4,9.5-20.2,41.6-32.1,53.1C721.7,160.4,721.3,160.1,720.9,159.8z"/>
	<path d="M412.6-4.2c-6.7,16.1-13.4,32.2-20.1,48.3c-0.7-0.3-1.4-0.6-2.1-0.9c4.7-16.9,12.1-32.8,20.1-48.3
		C411.2-4.8,411.9-4.5,412.6-4.2z"/>
	<path d="M648.3,166.8c-4.9,16-12,30.9-22.5,44c-0.5-0.3-1-0.5-1.6-0.8c7.4-14.7,14.8-29.3,22.3-44
		C647.1,166.3,647.7,166.5,648.3,166.8z"/>
	<path d="M767,117.3c-7.5,14.5-15.4,28.7-27.3,40.2c-0.5-0.3-1-0.7-1.5-1c9-13.5,18.1-27,27.1-40.6
		C765.9,116.4,766.4,116.9,767,117.3z"/>
	<path d="M766.9,156.4c5.8-12.8,12.9-24.7,23.4-34.4c0.5,0.3,0.9,0.6,1.4,1c-7.7,11.5-15.4,23-23.2,34.6
		C768,157.2,767.4,156.8,766.9,156.4z"/>
	<path d="M632.9,216.9c4.2-10.2,8.3-20.4,12.5-30.6c1.5,8.3-4.7,24.2-10.9,31.2C633.9,217.3,633.4,217.1,632.9,216.9z"/>
	<path d="M767.9,139.6c-1.3-8,0.9-15,6.4-21c0.4,0.1,0.9,0.3,1.3,0.4c-2.1,6.9-4.2,13.8-6.4,20.8
		C768.8,139.7,768.3,139.6,767.9,139.6z"/>
	<path d="M645.5,225.2c-2.6,2.1-4.1,3.7-6,4.6c-0.6,0.3-2.1-1.6-3.2-2.5c1.5-1.5,2.9-3.3,4.6-4.4C641.5,222.6,643.1,224,645.5,225.2
		z"/>
</g>
<rect x="434.6" y="-95.6" transform="matrix(-0.9945 0.1045 -0.1045 -0.9945 1245.8119 -87.0599)" class="st1" width="381.2" height="169.4"/>
<g class="st2">
	<path d="M505,14.4c0.7,6.9-1,12.8-5.1,17.8c-4.1,4.9-10.2,7.9-18.3,8.9c-2.1,0.2-4.3,0.1-6.7-0.3c-4.4-0.8-6.7-1.1-6.9-1.1
		c-2.3-0.2-4.6-0.5-7-0.8c-2.3-0.3-4.4-1.1-6.3-2.5c-2.8-2-5.2-5.4-7.3-10.3c-2.6-5.7-4.5-9.2-5.7-10.6c-0.8-0.7-1.9-1.9-3.1-3.6
		c-0.4-1.4-0.3-2.8,0.3-4.2c0.7-1.4,1.5-2.4,2.6-2.9c0.5-0.2,1.6-0.4,3.1-0.6c3.3-0.3,7.3-0.4,12.1-0.1c4.8,0.3,7.5,0.7,8.2,1.3
		c0.6,0.6,1.7,3.9,3.3,9.9c1.4,5.5,3,8.5,4.8,9c0.4,0.1,0.8,0.2,1.3,0.1c1.8-0.2,3.1-1.8,4.1-4.9c1-3.1,1.2-6.5,0.8-10.2
		c-0.9-8.1-3.9-13.3-9.3-15.5c-12.2-5-21-10-26.2-14.8c-6.1-5.6-9.3-12.6-9.6-21.1c-0.3-7.1,1.5-14.4,5.4-22s8.3-12.3,13.3-14.1
		c2.1-0.7,8.9,0.7,20.3,4.1c2.8,0.7,5.7,1.5,8.5,2.4c2.9,0.8,5.3,2.2,7.2,4.2c3,3,4.9,8.5,5.7,16.6c0.2,1.5,0.3,3.7,0.6,6.6
		c0.2,2.5,0.3,4.3,0.4,5.3c0.2,0.6,0.6,1.7,1.3,3.1c0.6,1,0.9,2,0.9,3c0.2,4.1-1.2,6.6-4.5,7.4c-1.8,0.5-5.4,0.1-10.6-1
		c-5.8-1.2-9.6-2.7-11.3-4.6c-0.2-0.3-0.4-1.2-0.6-2.8c-0.1-1.4-0.3-4.6-0.5-9.6c-0.2-5-0.4-8.6-0.6-10.8c-0.4-4-1.1-5.9-2-5.7
		c-2.9,0.5-5.1,2.8-6.6,7c-1.5,4.2-2,8.8-1.5,13.8c0.9,8.4,4,14.1,9.3,17.2c6,3,12,5.9,17.9,8.9c5.7,2.9,9.7,6,12.2,9.2
		C502.2,0.2,504.1,6.3,505,14.4z"/>
	<path d="M584.2,23.2c0,1.3-0.4,2.5-1.3,3.5c-0.9,1-2.1,1.5-3.4,1.5c-11.8-0.4-18.4-1.9-20-4.6c-0.2-0.4-0.4-0.7-0.4-1.1
		c0-0.5,0.1-1,0.5-1.6c0.4-0.6,0.6-1.1,0.6-1.6c0-0.4,0.2-0.8,0.4-1.3c0.1-0.8,0-2.4-0.4-4.9c-1,1-2.5,3.4-4.3,7.3
		c-1.9,4.3-3.7,7.3-5.3,9.1c-2.7,3.1-6,4.9-9.8,5.3c-2.2,0.2-4.5-0.4-6.9-2c-1.1-0.7-3.1-2.4-6-4.9c-5-4.6-7.7-7.1-8.2-7.5
		c-2.2-2.4-3.5-4.8-3.7-7.1c-0.1-0.7-0.1-1.5,0-2.3c0.9-8.4,5.6-16.8,14.1-25.2c6.2-6,15.1-12.7,26.8-20c-0.3-3-1.3-4.8-2.8-5.5
		c-1-0.5-4.2,0.9-9.5,4.2s-9,5.9-11.1,8c-0.7,0.8-1.8,2-3.3,3.5c-1.5,1.1-2.9,1.5-4.3,1.3c-1.1-0.2-3.4-1.6-7.1-4.4
		s-5.7-4.6-6.1-5.6c-1-2.4-0.4-4.5,1.8-6.1c0.1-0.1,1.9-0.9,5.4-2.3c3.3-2.2,6.5-4.5,9.8-6.7c6.9-4.2,12.9-6.7,17.9-7.6
		c2.1-0.3,4.7,0.5,7.6,2.6c2.7,1.9,5.3,3.8,8,5.6c2.7,1.8,5.5,3.6,8.3,5.3c3.3,2.3,5,4.7,5.3,7.1l5.6,53
		C583.6,20.8,584.2,22.4,584.2,23.2z M557.4-15.4c-4.4,2.3-8,5.4-10.9,9.4c-2.1,3.2-4.2,6.4-6.4,9.6c-1.8,2.2-3.3,4.9-4.7,8.2
		c-1.4,3.3-2,5.7-1.9,7.2c0.1,0.7,0.4,1.1,1,1c2-0.2,5.9-4.9,11.8-14.1C552.3-3.2,556-10.3,557.4-15.4z"/>
	<path d="M611.7-86.9c0.1,0.7,0,1.6-0.4,2.7c-0.3,1.2-0.5,1.9-0.6,2.2c-0.4,1.9-0.6,4.9-0.8,8.9l9,86.1c0.1,1.1,0.5,2.1,1.2,2.9
		c0.7,0.8,1,1.5,1.1,2.1c0.6,6-0.2,9.3-2.3,10c-0.8,0.3-3.9,0-9.1-1c-5.2-0.9-8.4-1.7-9.5-2.5c-2.2-1.6-3.4-3.1-3.6-4.6
		c0-0.4,0.1-0.8,0.4-1.3c0.3-0.5,0.4-1.3,0.3-2.4l-10.4-98.9c-0.1-0.6-0.3-1.1-0.7-1.7c-0.4-0.6-0.6-1.1-0.7-1.7
		c0-2.3,1.5-3.9,4.7-5c0.9-0.3,2.9-0.5,5.9-0.6c3.5-0.1,6.5,0.1,9.1,0.6C609.4-90.3,611.5-88.9,611.7-86.9z"/>
	<path d="M691.2-63.2c-2.7,9.6-5.3,24.2-8,43.8c-2.4,17.6-3.4,27.6-3.1,30c0.2,2.3,0.5,4.6,0.7,6.9c0.2,3-0.7,4.8-2.8,5.5
		c-2.1,0.6-7.3,0.2-15.5-1.1c-8.2-1.3-12.9-2.6-13.9-3.8c-0.5-0.7-0.9-1.7-1-3c-0.1-1.3-0.3-2.2-0.6-2.6c-5.7-13.2-10-24-12.9-32.4
		c-3.5-10.4-6.4-22-8.8-34.8c0-0.3-0.2-1.1-0.5-2.4c-0.3-1-0.5-1.8-0.5-2.5c-0.2-2.1,0.6-3.6,2.4-4.5c0.8-0.4,4.5-0.1,11,0.8
		c6.5,0.9,10.1,1.9,10.8,3c0.3,0.5,0.5,1.2,0.6,1.9c0.1,0.9-0.1,2.2-0.5,3.7c-0.4,1.5-0.6,2.5-0.5,3c1.8,7.2,3.5,13.5,5,19
		c3.7,13.2,6.3,21,7.8,23.4c0.5-8.3,1.9-19.1,4.1-32.5c1-6.4,2.1-12.9,3.2-19.3c0.1-1.7,0.2-3.4,0.3-5.1c0.5-1.9,1.5-3.2,3.1-3.9
		c1.1-0.5,4.2,0,9.2,1.6C686.4-66.8,689.9-65,691.2-63.2z"/>
	<path d="M758.9-16.8c1,1.3-0.4,5.7-4.2,13.1c-4.1,7.9-8.3,13.4-12.7,16.5c-0.5,0.3-1.4,0.6-2.5,0.7c-3.6,0.4-8.5-0.2-14.7-1.9
		c-6.5-1.6-10.9-3.6-13.1-6c-6.2-6.4-9.9-15.9-11.2-28.3c-1.2-11.8,0.1-22.4,3.9-31.9c4.1-10.4,10.1-16,18.1-17.1
		c2.9-0.4,6.5,0,10.8,1.1c5.3,1.4,9.7,3.7,13.3,6.7c0.9,0.8,2,3.2,3.2,7.3c1.4,4.4,2.3,8.7,2.8,13c0.7,6.4,0.1,10.9-1.7,13.5
		c-9.3,4.1-18.9,6.9-28.9,8.3c0.3,4.6,1.4,9.4,3.2,14.3c1.8,4.9,3.5,7.3,4.9,7.3c1.9-0.1,4-1.9,6.2-5.3c2.1-3,3.3-5.4,3.6-7.3
		c0.4-2.9,0.9-5.9,1.8-9c1.5-0.3,4.5,0.1,9.1,1.3C755.3-19.3,758-18.1,758.9-16.8z M729.4-57.1c-1.6,0-3.6,2.7-5.9,8.3
		c-2.3,5.5-3.4,10.7-3.4,15.5c4.2-0.6,7.4-2,9.8-4.1c1.4-1.3,1.6-6,0.8-14.3C730.3-55.2,729.9-57,729.4-57.1z"/>
	<path d="M792-37.3c0.2,3.5-0.5,5.5-2.1,6c-0.5,0.1-0.9,0.2-1.4,0.3c-2.7,0.3-6.2-0.4-10.6-2.1c-4.3-1.7-8-3.9-10.9-6.7
		c-1.2-1.1-1.5-3.3-0.7-6.7c0.8-3.4,1.2-5.1,1.2-5.2l-5.6-53c-0.3-2.4,1-4.3,3.7-5.5c0.5-0.2,1.3-0.4,2.4-0.5c2.6-0.3,5.7,0,9.2,0.7
		c3.5,0.8,5.7,1.8,6.7,3c0.2,0.3,0.6,2.8,1.1,7.5l6,57.2c0.1,0.6,0.2,1.4,0.5,2.4C791.8-38.8,792-38,792-37.3z M794.2-17
		c0.4,0.8,0.6,3.1,0.7,6.9c0.1,4.9,0.3,7.9,0.4,9c0.4,3.7,0.5,6.7,0.4,8.8c-0.2,2.1-1.2,3.4-3.1,4c-1.1,0.4-4.4-0.2-10-1.8
		c-5.9-1.7-9.4-3.4-10.7-5c-0.8-1-0.7-2.7,0.2-5.1c0.5-1.1,0.6-2.8,0.4-5.3c-0.4-2-0.8-6-1.2-11.8c0-3.4,1.2-5.2,3.7-5.4
		c2.6-0.1,6.4,0.6,11.3,2C791-19.2,793.7-18,794.2-17z"/>
</g>
</svg>
