<?xml version="1.0" encoding="utf-8"?>
<!-- Generator: Adobe Illustrator 19.0.0, SVG Export Plug-In . SVG Version: 6.00 Build 0)  -->
<svg version="1.1" id="Layer_1" xmlns="http://www.w3.org/2000/svg" xmlns:xlink="http://www.w3.org/1999/xlink" x="0px" y="0px"
	 viewBox="0 0 647 559" style="enable-background:new 0 0 647 559;" xml:space="preserve">
<style type="text/css">
	.st0{display:none;}
	.st1{font-family:'MarkerFelt-Wide';}
	.st2{font-size:137px;}
	.st3{fill:#FFFFFF;}
</style>
<text transform="matrix(0.9945 -0.1045 0.1045 0.9945 168.9991 272.2169)" class="st0 st1 st2">Salvē!</text>
<g>
	<path class="st3" d="M0,0c216.7,0,433.3,0,650,0c0,187.7,0,375.3,0,563c-216.7,0-433.3,0-650,0C0,375.3,0,187.7,0,0z M614.8,136.3
		c0.9,0,1.8,0,2.9,0c0.3-3.8,0.7-7.8,0.9-11.8c1.3-23.9,0.6-47.6-6.5-70.7c-4.3-14.2-12.4-25-26.3-30.8c-10.9-4.5-22.1-8.4-34.2-13
		c0.5,2.9,0.7,4.4,0.9,5.5c-16.8,1.4-33.3,2.4-49.6,4.2c-27.5,2.9-55,5.3-82.8,4.2C399,23.1,378,24.8,357,27.5
		c-21.3,2.8-42.7,5.1-64.1,6.2c-17.1,0.9-34.3-0.6-51.4-0.6c-10.3,0-20.6,0.7-30.9,1.2c13.9,7.2,28.1,1.6,42.1,1.8
		c0,0.5,0.1,1,0.1,1.5c-16.4,1.8-32.9,3.7-48.6,5.5c1.7-1.8,3.5-3.8,5.3-5.8c-0.4-0.4-0.8-0.9-1.1-1.3c-1.6,0.2-3.2,0.4-4.8,0.7
		c-22.6,4.3-45,9.4-68.2,8.8c-6.6-0.2-13.3,1-19.8,2.3c-29.6,5.9-54.3,22.2-79,38.2c-1.4,0.9-2.9,2.6-4.1,2.5
		c-5.3-0.8-6.1,2.9-6.9,6.5c-0.7,3.2-1.8,6.6-1.5,9.8c0.8,8,2.3,15.9,3.5,23.9c2.6,16.1,5.2,32.2,7.7,48.3c0.2,1.2-0.6,2.6-1,3.9
		c-0.9-1.1-2.2-2.1-2.6-3.4c-1.7-5-3.1-10.1-4.6-15.2c-0.6,0.2-1.2,0.3-1.8,0.5c4.2,24.2,12.7,47.4,18.9,71.3
		c1.5-0.5,2.5-0.8,2.8-0.9c-2.9-12.6-5.6-24.9-8.4-37.1c0.5-0.1,1-0.2,1.5-0.4c1.6,6.6,3.2,13.1,4.8,19.7c0.4,0.2,0.8,0.4,1.2,0.7
		c0.7-1.4,1.5-2.7,1.7-3.1c0.4,4.6,0,9.7,1.5,14.3c3.2,10,7.4,19.6,11.2,29.4c1,2.5,1.8,5,2.7,7.5c-0.5,0.2-1,0.4-1.4,0.6
		c-4.3-9.5-8.6-19-13-29c-1.1,3.3-1.9,6-3.1,9.5c-14.2-27.6-22.2-56-23.5-86.2c-0.4-9.1,0.3-18.3,0.3-27.5c0-3.2,1.1-6.9-3.4-9.8
		c-0.4,5.3-0.9,9.7-0.9,14.1c-0.1,47.6,7.7,92.7,38.7,131.4c6.7,8.3,11.6,18.3,15.7,28.2c5.8,14.1,10,28.9,14.8,43.4
		c1.3,4.1,2.4,8.1,7.5,6.4c0.2,1.8,0.5,3.3,0.6,4.7c-1.2-0.4-2.6-0.8-4.7-1.5c6.7,12.9,13.1,25,19.6,37.5c1.2-1.5,2.1-2.7,2.9-3.8
		c-3.6-4.4-3.5-5.4-0.5-9.1c2.1,5.7,4.4,11.7,6.6,17.7c-1.6-0.4-3.8-0.9-5.9-1.4c-0.4,0.4-0.7,0.8-1.1,1.2
		c10.6,12.8,20.7,26,32,38.2c8.2,8.8,18.3,15.5,31.1,16.5c7.6,0.6,15.2,1.8,22.8,2.4c6.8,0.5,13.7,1.6,20.4,0.8
		c19.7-2.2,39.2-5.2,58.8-7.8c12-1.6,24-3.7,36.1-4.3c9.7-0.5,17.4,4.7,21.8,13.4c2.8,5.5,4.4,11.6,6.8,18.4c1-3.3,1.9-6.1,2.7-8.5
		c5.5,13.7,11.4,28.2,17.3,42.8c-1.5-0.1-2.8-0.3-4.8-0.4c3.3,4.7,6.1,8.8,9.2,13.2c1.5-2.3,2.7-4.2,4.4-6.7
		c2.3,4.2,4.2,7.7,6.8,12.5c-3.8-2-6.1-3.2-8.5-4.5c-0.4,0.5-0.9,1.1-1.3,1.6c2.9,3.2,5.8,6.4,8.8,9.5c5.2,5.3,10.4,10.6,15.8,15.7
		c1.6,1.5,3.5,3,5.6,3.7c2,0.7,4.4,0.2,6.6,0.4c4.9,0.5,7.5-2.6,6.4-7.3c-1.3-5.5-3-11.1-3.1-16.6c-0.6-28.8-0.7-57.6-1-86.4
		c-0.1-5.6,0-11.2,0-17.1c15.6,3.7,53.6,4.2,68.5,1.7c16.5-2.7,33.2-5,49.8-7.4c7-1,13.4-3.2,19.1-8c-1.2-1.5-2.2-2.7-3-3.8
		c2-3.8,3.7-7.3,5.5-10.9c-1.4-0.4-2.2-0.6-2.4-0.6c3.3-10.1,6.4-19.9,9.8-29.6c1.3-3.7,0.7-8.5,5.4-10.6c0.5-0.2,0.4-1.8,0.5-2.8
		c1.5-8.6,3-17.3,4.4-25.9c0.3-2,0.3-4.1,0.4-6.2c0.2-4.3,0.3-8.6,0.5-13.9c3,2,4.4,2.9,5.8,3.9c0.8-1.3,1.4-2.3,2.1-3.5
		c1.6,5.8,1,10.3-4.6,13.1c-0.9,0.5-1.8,2-1.9,3.1c-1.4,9.9-2.7,19.8-3.8,29.7c-0.4,3.6-0.7,6.8-4.4,8.7c-1.1,0.6-1.8,2.8-1.9,4.2
		c-0.1,10.3-2.2,19.8-9.9,27.4c1,1.6,1.9,3,2.8,4.4c14.9-17.6,32.5-71.4,32.9-100.5c-1.5-0.2-3-0.5-4-0.6
		c1.4-14.2,1.9-28.2,4.3-41.8c2.4-13.7,6.8-27,10.4-40.6c-1.1,0.3-2.4,0.7-4.2,1.3c1.3-5.3,2.4-10.3,3.8-16
		c3.4,7.1,5.5,13.5,3.7,20.8c-4.7,19.2-9.3,38.5-13.9,57.7c-1.4,5.7-1.6,11.3,0.8,16.7c0.6,0.1,1.2,0.2,1.8,0.2
		c7.7-38.1,15.5-76.1,23.2-114.2c0.3,0,0.6-0.1,0.9-0.1c0.6,4.7,1.1,9.3,1.7,14c0.5,0,1-0.1,1.5-0.1c-2.4-6.9,4.5-13.2-1.1-21.1
		c-2.7-3.9-0.5-11.2-0.5-17c0.2,0,0.4,0,0.6,0c0.9,5.4,1.7,10.7,2.6,16.1c0.2,0,0.5,0,0.7,0c0.6-7.7,1.1-15.4,1.7-23.3
		c-0.5,0.2-1.2,0.4-2.1,0.7c0.2-3.1,0.3-6,0.4-8.8L614.8,136.3z M406.9,551c-2.7,0-3.9-0.2-5,0c-5.3,1.4-8.5-1.2-11.5-5.3
		c-3.9-5.3-8.3-10.2-12.6-15.3c1.7,9.2,10.2,20.9,17.9,25.5c0.9,0.5,2.5,0.7,3.4,0.2C401.5,554.9,403.5,553.3,406.9,551z
		 M346.5,468.9c-4,4.6,0.3,19,8,27.7C351.7,486.8,349.2,478.2,346.5,468.9z"/>
	<path d="M614.9,136.1c-0.1,2.8-0.3,5.6-0.4,8.8c0.9-0.3,1.7-0.5,2.1-0.7c-0.6,7.8-1.1,15.6-1.7,23.3c-0.2,0-0.5,0-0.7,0
		c-0.9-5.4-1.7-10.7-2.6-16.1c-0.2,0-0.4,0-0.6,0c0,5.8-2.2,13.1,0.5,17c5.5,7.8-1.4,14.2,1.1,21.1c-0.5,0-1,0.1-1.5,0.1
		c-0.6-4.7-1.1-9.3-1.7-14c-0.3,0-0.6,0.1-0.9,0.1c-7.7,38.1-15.5,76.1-23.2,114.2c-0.6-0.1-1.2-0.2-1.8-0.2
		c-2.4-5.4-2.2-11-0.8-16.7c4.6-19.3,9.2-38.5,13.9-57.7c1.7-7.2-0.3-13.7-3.7-20.8c-1.4,5.7-2.5,10.7-3.8,16
		c1.8-0.5,3.1-0.9,4.2-1.3c-3.6,13.6-7.9,26.9-10.4,40.6c-2.4,13.6-2.9,27.5-4.3,41.8c1,0.2,2.5,0.4,4,0.6
		c-0.4,29.1-18,82.9-32.9,100.5c-0.9-1.4-1.8-2.8-2.8-4.4c7.7-7.6,9.8-17.1,9.9-27.4c0-1.5,0.8-3.7,1.9-4.2c3.7-2,4-5.1,4.4-8.7
		c1.1-9.9,2.4-19.8,3.8-29.7c0.2-1.1,1-2.7,1.9-3.1c5.6-2.8,6.2-7.3,4.6-13.1c-0.7,1.2-1.3,2.2-2.1,3.5c-1.4-1-2.9-1.9-5.8-3.9
		c-0.2,5.3-0.4,9.6-0.5,13.9c-0.1,2.1,0,4.2-0.4,6.2c-1.4,8.6-2.9,17.3-4.4,25.9c-0.2,1,0,2.5-0.5,2.8c-4.7,2.2-4.1,6.9-5.4,10.6
		c-3.4,9.7-6.5,19.5-9.8,29.6c0.2,0,1,0.3,2.4,0.6c-1.8,3.6-3.6,7-5.5,10.9c0.9,1.1,1.8,2.3,3,3.8c-5.7,4.8-12.1,7-19.1,8
		c-16.6,2.4-33.2,4.7-49.8,7.4c-14.9,2.5-52.9,2-68.5-1.7c0,5.9,0,11.5,0,17.1c0.3,28.8,0.4,57.6,1,86.4c0.1,5.6,1.9,11.1,3.1,16.6
		c1.1,4.7-1.6,7.9-6.4,7.3c-2.2-0.2-4.6,0.2-6.6-0.4c-2-0.7-4-2.2-5.6-3.7c-5.4-5.1-10.6-10.4-15.8-15.7c-3-3.1-5.9-6.3-8.8-9.5
		c0.4-0.5,0.9-1.1,1.3-1.6c2.3,1.2,4.7,2.5,8.5,4.5c-2.6-4.8-4.5-8.4-6.8-12.5c-1.6,2.5-2.8,4.4-4.4,6.7c-3.1-4.4-5.9-8.5-9.2-13.2
		c2.1,0.2,3.3,0.3,4.8,0.4c-5.9-14.7-11.8-29.1-17.3-42.8c-0.7,2.4-1.7,5.2-2.7,8.5c-2.4-6.7-4-12.9-6.8-18.4
		c-4.4-8.7-12.1-13.9-21.8-13.4c-12.1,0.7-24.1,2.7-36.1,4.3c-19.6,2.6-39.2,5.6-58.8,7.8c-6.7,0.7-13.6-0.3-20.4-0.8
		c-7.6-0.6-15.2-1.8-22.8-2.4c-12.8-1-22.9-7.7-31.1-16.5c-11.3-12.1-21.4-25.4-32-38.2c0.4-0.4,0.7-0.8,1.1-1.2
		c2.1,0.5,4.3,1,5.9,1.4c-2.2-6-4.5-12-6.6-17.7c-3,3.7-3,4.7,0.5,9.1c-0.9,1.1-1.8,2.3-2.9,3.8c-6.5-12.4-12.8-24.6-19.6-37.5
		c2.1,0.7,3.5,1.1,4.7,1.5c-0.2-1.3-0.4-2.8-0.6-4.7c-5.1,1.7-6.2-2.3-7.5-6.4c-4.7-14.5-9-29.3-14.8-43.4c-4-9.9-9-19.9-15.7-28.2
		c-31-38.6-38.7-83.8-38.7-131.4c0-4.4,0.6-8.8,0.9-14.1c4.5,2.9,3.4,6.7,3.4,9.8c0,9.2-0.7,18.3-0.3,27.5
		c1.3,30.2,9.3,58.7,23.5,86.2c1.1-3.4,2-6.2,3.1-9.5c4.5,10,8.8,19.5,13,29c0.5-0.2,1-0.4,1.4-0.6c-0.9-2.5-1.8-5-2.7-7.5
		c-3.8-9.8-8-19.4-11.2-29.4c-1.5-4.6-1.1-9.7-1.5-14.3c-0.2,0.3-0.9,1.7-1.7,3.1c-0.4-0.2-0.8-0.4-1.2-0.7
		c-1.6-6.6-3.2-13.1-4.8-19.7c-0.5,0.1-1,0.2-1.5,0.4c2.8,12.3,5.6,24.5,8.4,37.1c-0.3,0.1-1.4,0.4-2.8,0.9
		c-6.2-24-14.6-47.1-18.9-71.3c0.6-0.2,1.2-0.3,1.8-0.5c1.5,5.1,2.9,10.2,4.6,15.2c0.4,1.3,1.7,2.3,2.6,3.4c0.3-1.3,1.2-2.7,1-3.9
		c-2.5-16.1-5.2-32.2-7.7-48.3c-1.3-7.9-2.7-15.9-3.5-23.9c-0.3-3.2,0.8-6.6,1.5-9.8c0.8-3.6,1.6-7.3,6.9-6.5
		c1.2,0.2,2.8-1.6,4.1-2.5c24.7-16.1,49.4-32.4,79-38.2c6.5-1.3,13.2-2.5,19.8-2.3c23.2,0.6,45.6-4.5,68.2-8.8
		c1.6-0.3,3.2-0.5,4.8-0.7c0.4,0.4,0.8,0.9,1.1,1.3c-1.8,2-3.7,4-5.3,5.8c15.7-1.8,32.2-3.6,48.6-5.5c0-0.5-0.1-1-0.1-1.5
		c-14-0.2-28.2,5.4-42.1-1.8c10.3-0.4,20.6-1.2,30.9-1.2c17.2,0,34.3,1.5,51.4,0.6c21.4-1.1,42.8-3.4,64.1-6.2
		c21-2.8,42-4.5,63.2-3.7c27.7,1.1,55.2-1.3,82.8-4.2c16.4-1.7,32.8-2.8,49.6-4.2c-0.2-1.1-0.4-2.6-0.9-5.5
		c12.1,4.6,23.2,8.5,34.2,13c13.9,5.7,22,16.6,26.3,30.8c7.1,23.2,7.7,46.8,6.5,70.7c-0.2,4-0.6,7.9-0.9,11.8c-1.1,0-2,0-2.9,0
		c-0.8-2.8-2.4-5.8-2.2-8.5c0.9-11.2,3.4-22.4,3.4-33.6c-0.1-20.1-4.8-39.3-16.2-56.3c-5.6-8.4-13-14.6-24.8-17
		c13,10.4,20.4,22.8,24.3,36.9c-1.8,0.6-3.2,1.1-4.5,1.5c0.2,0.5,0.3,1,0.5,1.5c1.8-0.2,3.5-0.5,5.9-0.8c-0.4,3.9-0.8,7.5-1.2,11
		c-1.5,0.2-2.7,0.3-4.5,0.5c1.5,2.2,2.9,3.6,3.8,5.4c1.5,2.8,3.7,5.7,3.8,8.6c0.8,22.5,1.2,44.9,1.9,67.4c0.1,5,0.7,9.9,1.4,14.9
		c0.2,1.1,1.6,2.1,2.4,3.2c0.5-0.3,1.1-0.6,1.6-1c-5.2-5.3-4.1-11.4-2.9-17.5c0.7-3.8,1.9-7.5,2-11.3
		C609.5,137.2,611.4,136.1,614.9,136.1z M106.7,318.4c-2.8,0.9-5.5,1.7-8.3,2.6c3,8.3,5,9.7,11.1,7.9c1.5,3.4,3.1,6.8,4.6,10.2
		c0.4-2.2-0.1-4.1-0.9-5.8C111.1,328.3,108.9,323.3,106.7,318.4c0.2-0.8,0.2-1.7,0.6-2.4c4.9-8.8,10.2-17.5,14.7-26.5
		c4.1-8.3,7.1-17.2,11.2-25.6c2.4-4.8,5.8-9.2,8.8-13.7c0.4,0.2,0.7,0.5,1.1,0.7c-0.7,1.7-1.4,3.3-2.1,5
		c-9.1,20.2-18.3,40.3-27.3,60.5c-0.7,1.6-1.3,4.1-0.6,5.4c2.1,3.7,4.9,7,7.9,11.2c7.6-19,10.2-39.4,25.3-54
		c-6.5,15.6-13,30.7-19.2,45.9c-2.5,6-4.8,12.2-0.1,18.7c-2.1,0.6-3.6,1-5.6,1.5c1.5,2.7,2.8,5.1,4.5,8.2c2.3-3.9,4.5-6.9,5.9-10.2
		c5.3-12.8,10.1-25.7,15.4-38.4c1.6-3.9,4.5-7.3,6.8-10.9c0.5,0.3,1.1,0.6,1.6,0.9c-2.4,5.4-5,10.7-7.2,16.2
		c-4.9,12-9.7,24-14.4,36.1c-2.6,6.5,1.1,11.2,5,16.7c1.3-2.7,2.3-4.6,3.1-6.6c5.9-15,11.8-30,17.8-45c0.7-1.8,2.1-3.4,3.1-5
		c0.6,0.3,1.2,0.6,1.8,0.9c-7.3,19.2-14.6,38.4-21.9,57.7c1,0.7,1.7,1.2,2.4,1.6c1.1,0.6,2.3,1.2,3.8,2.1
		c8.5-19.2,12.9-40.3,27.8-56.1c-1.1,3.6-2.8,7-4.3,10.5c-6.5,14.9-13,29.9-19.4,44.9c-0.6,1.4-0.7,4.1,0.2,4.8
		c8.3,7.4,16.9,14.4,25.8,22c3.2-7.7,6.1-14.7,9.5-22.9c-3.4,2.6-5.8,4.3-8.2,6.2c10.5-18.8,20.9-37.3,31.3-55.8
		c0.1,4.7,0,9.5-1.8,13.6c-8,18.1-16.7,35.8-24.7,53.9c-3.9,8.8-3.2,10,4.1,16.6c1.1,1,2.2,1.8,3.3,2.7c8.4-20.1,16.7-39.9,25-59.7
		c0.6,0.2,1.3,0.5,1.9,0.7c-0.6,2.3-0.9,4.7-1.8,6.9c-4.1,10-8.3,20-12.6,29.9c-1.2,2.8-1.8,5.1,1,7.5c0.8,0.7,0.6,3.3,0,4.6
		c-2.4,5.4-5.2,10.6-8.2,16.6c8.1,2.4,15.2,4.5,22.6,6.7c9.8-22,15.1-45.1,28.2-64.8c0.5,0.2,0.9,0.4,1.4,0.5c-4,10-8,19.9-12,29.9
		c3.6-3.2,5.8-7.1,8.8-10.4c3.1-3.4,6.6-6.5,10.3-9.3c3.4-2.6,7.2-4.7,10.8-7c-2.6,5.2-5.8,9.6-8.8,14.2c-2.9,4.5-5.8,8.9-8.4,13.6
		c-2.6,4.8-4.6,10-7.2,14.8c-2.5,4.6-5.4,9-8.1,13.4c-0.5-0.3-1-0.6-1.6-0.9c4.8-10.7,9.6-21.3,14.3-32
		c-10.5,10.5-16.3,23.7-22.9,37.2c7.6,0,14.2-0.3,20.9,0.1c4.2,0.2,6.5-1,8.4-4.9c6.8-13.3,14-26.4,21.2-39.6
		c1.2-2.2,2.7-4.2,4.2-6.2c1.5-2,3-4,4.6-5.9c1.5-1.8,3.2-3.4,4.8-5.1c-10.4,20.9-23.7,39.9-33.6,61.6c4.4,0,8-0.4,11.4,0.1
		c4,0.6,5.8-1.1,7.5-4.6c7-13.8,14.3-27.4,21.8-41c2.4-4.4,5.8-8.2,8.7-12.3c-0.3,4.7-0.5,8.6-4,12.5c-5.3,6-8.9,13.6-12.8,20.8
		c-3.8,7.1-7.1,14.5-11.3,23.1c7.5-2.5,13.4-4.5,19.8-6.6c0,1.7,0,2.9,0,4.2c11.8-19.5,15.9-43,34-58.6
		c-8.9,16.7-17.8,33.4-27.2,51.2c4.8-0.4,7.7-0.7,11.7-1.1c-2.8,3.9-4.9,6.9-7.2,10.1c7.6-0.3,8-0.1,11.1-6.1
		c4.9-9.6,9.1-19.6,14-29.2c2.9-5.7,6.4-11,9.7-16.5c0.7,0.4,1.3,0.7,2,1.1c-7.7,16.3-15.4,32.5-23.1,48.6
		c10.4,0.4,11.5-0.3,16.2-9.5c5.3-10.4,10.8-20.6,16.3-30.9c0.8-1.6,2.2-2.8,3.3-4.2c-0.6,4.8-3.7,9.2,2,13.1
		c4.3-7.4,6.8-16.1,15.9-21.7c-11,20-21.3,38.7-31.6,57.5c-0.7-0.3-1.4-0.7-2-1c3.7-7.7,7.3-15.5,11.3-23.1c2.1-3.8,1.2-6-2.2-8.1
		c-2.7,5.1-5.7,9.8-7.8,14.9c-2.1,5.3-3.5,11-5,16.6c-0.8,3,0.7,5.1,3.3,7.1c2.1,1.7,3.6,4.6,4.6,7.2c4.8,12.7,8.7,25.8,14.3,38.2
		c4.1,9.1,10.2,17.2,15.8,26.2c2.1-3,3.4-4.7,4.4-6.1c2.7,6.5,5.8,12.6,7.7,19c2.3,7.5,9.7,8.9,15.2,13.3
		c-2.2-9.9-4.4-19.9-6.6-29.8c-0.7,0.2-1.5,0.4-2.2,0.6c1.4,4.5,2.5,9.1,4.4,13.4c1.4,3.2,0.4,6.3-4.3,8.2c-1.2-5.4-3-10.7-3.3-16
		c-1.1-19.1-1.6-38.2-2.3-57.3c-0.3-8.5-0.6-17,5.2-24.3c0.1-0.1-0.2-0.5-0.5-1.2c-3.8,0.4-7.8,0.7-11.7,1.3c-1,0.2-2.5,1.3-2.7,2.2
		c-2.3,10.1-4.4,20.1-2.7,30.6c0.8,5,1.3,10.1,1.5,15.1c0.2,7.2,0.1,14.5,0.1,21.7c-1.5-0.6-2.8-1.8-2.9-3.1
		c-0.8-7.1-1.7-14.3-1.8-21.4c-0.1-12.6,0.1-25.2,0.7-37.8c0.3-5.9,4.2-9.7,9.8-11.4c4.3-1.2,8.7-2.2,13.2-2.8
		c3.8-0.5,5.8-2.1,7.7-5.7c12.5-23.5,25.4-46.8,38.2-70.1c1.3-2.3,2.9-4.4,4.6-6.6c1.5-2,3.2-3.8,4.8-5.7
		c-12.2,29-32.3,53.8-43.6,83.4c7.7,0.8,12.4-1.1,15.6-8.6c6.1-14.3,13.6-28.1,21.2-43.7c1.4,2.6,2.2,4,3.2,5.9
		c2.7-4.1,4.7-7.4,7-10.4c2.2-2.9,4.9-5.4,7.4-8.1c0.4,0.3,0.7,0.6,1.1,0.9c-13,21.5-29.1,41.1-41,64.1c17.1,0.5,33.2,1.1,49.3,1.3
		c15.1,0.1,29.9-1.9,44-7.6c5-2.1,10.8-3.4,8.5-11.7c0.5,0,1,0.1,1.5,0.1c2.6,2.4,5.1,4.8,7.7,7.2c2.3-2.1,4.7-4.3,7.4-6.7
		c-1.9,0.5-3.5,1-5.2,1.5c-1.3-14.4,8-25.6,9.3-38.8c-1.2,1.4-2.1,2.9-2.7,4.6c-3.3,9.1-6.5,18.1-9.8,27.2c-0.7,2-1.6,4.7-4.4,3
		c-2.5-1.5-3.5-3.8-1.6-6.8c1-1.6,1.9-3.4,2.2-5.3c1.1-5.6,1.7-11.2,2.9-16.7c0.8-3.7,0.2-8.8,6.2-9.3c0.6-0.1,1.2-1.5,1.5-2.4
		c2.2-6.4,4.7-12.8,6.5-19.4c2.1-7.7,1.8-12.8-0.2-16.8c-0.5,1.2-1.1,2.2-1.4,3.3c-2.3,9-4.5,18-6.9,27c-0.4,1.4-1.6,2.5-2.4,3.7
		c-0.8-1.4-2.1-2.6-2.4-4.1c-0.5-2.2-0.4-4.6-0.7-7.7c-2.5,2.1-4.2,3.5-5.8,4.9c-0.3-0.2-0.7-0.5-1-0.7c2.9-6.5,5.9-12.9,8.5-19.5
		c4.4-11.1,9.5-22.1,12.4-33.6c4.3-16.6,6.4-33.7,10.3-50.4c9.9-43.2,13.7-87.1,15.3-131.3c0.5-15.1-1.6-29.8-8.5-43.7
		c-3.4-6.8-8.4-9.5-15.6-9.1c-5.6,0.3-11.3,1-16.9,1.1c-20.2,0.3-40.3-0.2-60.5,0.6c-35.6,1.3-71,5.6-106.8,3.8
		c-26.7-1.3-53.2,3.2-79.4,8.1c-43.9,8.2-88.3,10.4-132.8,9.7c-0.5,0-1-0.2-1.6-0.3c0-0.5-0.1-1-0.1-1.5c4.7-0.7,9.3-1.9,14-2.1
		c10-0.4,20.1,0.6,30-0.5c38.6-4.1,77-9,115.6-13.1c18.2-1.9,36.5-2.9,54.7-3.7c14.1-0.6,28.3,0.1,42.5-0.6
		c16.3-0.8,32.5-3.2,48.8-3.7c21-0.7,41.9,0,62.9-0.2c9.7-0.1,19.4-1.2,29.1-1.8c0.1-0.5,0.2-1,0.2-1.5c-2.4-1.3-4.8-2.8-7.3-4
		c-10.7-4.9-22.1-6.1-33.6-6.1c-26.3-0.1-52.6,0.2-78.9-0.1c-18.9-0.2-37.5,1.9-56,5.5c-12.2,2.4-24.8,4.2-37.1,3.8
		c-31.5-1.1-62.4,3.2-93.4,8.2c-15.3,2.4-30.2,8.7-44.8,5.6c-1.4,1.6-2.1,3.1-3.3,3.6c-1.4,0.5-3.1,0-4.7,0c0.5-1.6,1-3.1,1.5-4.9
		c-1.3-0.1-2.9-0.3-4.6-0.5c-0.2,1.5-0.4,2.6-0.6,3.7c-5.1-0.3-9.7-0.6-14.3-0.8c0,0.4-0.1,0.7-0.1,1.1c4.5,0.6,9,1.1,13.4,1.7
		c0,0.5,0,1,0,1.4c-9.7,1.9-19.4,3.9-29.3,5.9c-1.8-6.6,5.6-3.7,7-7.4c-4.8,0.9-9.2,1.7-13,2.4c0.2,2.7,0.4,4.7,0.6,6.8
		c-2.6,0.7-4.6,1.5-6.8,1.8c-16,2.2-32,4.3-48,6.3c-10.2,1.3-20.6,1.9-30.1,6.6c-1.2,0.6-3.1-0.1-4.7-0.1c0.2-1.8-0.2-4,0.7-5.3
		c1.2-1.8,3.4-3.1,5.1-4.5c-2.8,0.5-6.1,1.4-7.2,3.5c-2.9,5.3-4.8,11.1-7.2,16.9c1.5-0.6,2.8-1.2,4.5-1.9
		c-2.3,6.6-4.4,12.7-6.4,18.6c-6.9-5.6-6.4-14.5-8.9-22.1c-0.8,6.7-1.6,13.4-2.6,21.3c-2.1-2.1-3.9-3.9-6.2-6.1
		c0.6,6.2,1.2,11.8,1.8,18.4c2.1-4.1,3.2-7.4,5.2-9.8c1.1-1.3,3.8-1.7,5.7-1.7c0.6,0,1.5,2.8,1.7,4.4c0.4,3.3,0,6.8,0.8,9.9
		c2.8,10.2,6.2,20.3,9.1,30.5c5.8,20.7,11.4,41.4,17.1,62.1c0.4,1.3,0.8,2.6,1.2,3.9c0.4,0,0.8,0,1.2,0c3.6-15,7.1-30,10.7-45
		c0.4,0.1,0.8,0.1,1.2,0.2c0,3,0.6,6.1-0.1,8.9c-2.7,11.5-6,22.8-8.5,34.3c-1.4,6.6-1.6,13.5-2.4,20.3c0.9,0.2,1.9,0.5,2.8,0.7
		c6.8-17.3,13.5-34.5,20.3-51.8c0.6,0.2,1.2,0.4,1.8,0.7c-0.4,1.5-0.6,3.2-1.1,4.6c-6.1,16-11.8,32.2-18.5,47.9
		c-2.9,6.8-1.6,12.3,1.3,19c3.4-10.9,6.3-21,9.8-31c3.5-10.1,8.1-19.6,15-27.9c-0.2,1.7-0.7,3.2-1.2,4.7
		c-6.8,18.2-13.5,36.5-20.6,54.6c-2.9,7.2-0.1,12.7,3.7,18.7c9.7-21.5,17.7-43.5,31.2-62.6c0.2,1.1,0,2.1-0.4,3
		c-4.3,9.6-8.6,19.1-12.9,28.6c-4.8,10.6-9.5,21.3-14.4,31.8c-1.4,3.1-0.8,5.6,1.1,8.3c3.6,5,7.1,10.1,10.6,15.1
		c2.3,3.2,1.3,6.7-3.3,8.9C103.6,317.2,105.1,317.8,106.7,318.4z M569.9,248.1c0.9-0.1,1.8-0.2,2.6-0.3c-1.9-4.5,2.5-8.9-1-13.6
		c-0.5-0.7,0.3-2.4,0.6-3.7c2-8.7,4.7-17.3,5.9-26.1c2-14.3,2-29,4.9-43.1c5.6-26.7,5.2-53.5,2.9-79.6c-0.3,0.6-1.2,2-2.3,3.8
		c-3.8-13.9-9.9-25.5-21.3-33.8c11,17,13,36.1,12.7,55.5c-0.7,47.8-7.1,94.8-17.5,141.4c-2.8,12.3-5.1,24.7-7.6,37.1
		c1.6,0.9,2.9,1.6,4.2,2.3c-1.5,3-3.1,5.8-4.4,8.6c-1.1,2.4-3.3,5.1-2.8,7.2c1.2,5.5,3.6,10.8,5.7,16.7c6.5-16,11-31.9,11.6-48.9
		c-1.5,3.4-3,6.7-5,11.1c-1.5-2.2-3.6-4-3.3-5.2c1.3-5.7,3.2-11.3,5.2-17.9c1.8,2.2,2.9,3.5,4.3,5.2c1.9-5.4,3.6-10.3,5.5-15.7
		c-1.8-0.1-3-0.2-4.5-0.3c0.3,2.8,0.6,5.1,0.8,7.6c-2.8,0.4-5,0.7-7.2,1c2.9-6.3,5.7-12.5,8.8-19.2
		C569.2,242.3,569.5,245.2,569.9,248.1z M49.4,152.3c-0.6,0.2-1.3,0.3-1.9,0.5c3.1,18.4,6.1,36.7,9.2,55.6c2.9-1.3,4.4-2,6.4-2.9
		c-4.1,12.9,3.2,22.1,8.4,31.8C67.1,208.1,59.6,179.9,49.4,152.3z M589.2,73c-0.4-5.3,1-11.2-5.3-14c-2.5-1.1-4.9-3.1-6.4-5.4
		c-8.1-12-22.9-18.8-35.7-15.2c6.3,3.7,12.7,7.9,19.6,9.8c9,2.4,14.5,7.6,17.8,15.8c1.5,3.7,2.9,7.5,4.7,12.3c0.6-3.4,1-5.5,1.5-8.3
		C586.9,70,588.1,71.5,589.2,73z M186.1,412.1c0.3-0.6,0.5-1.1,0.8-1.7c-13.5-15.7-30.9-30.9-38.7-33.9c2.2,8.4,15.2,25.4,25.5,33.2
		c0.5-1.5,0.9-3,1.2-4.1C178.8,408,182.5,410.1,186.1,412.1z M581.6,35.1c0.3-0.6,0.6-1.2,0.9-1.7c-4.6-3.8-9.1-7.7-13.8-11.4
		c-0.8-0.6-2.2-0.9-3.2-0.8c-17.2,1.6-34.3,3.2-51.2,6.8c-0.3,0.1-0.5,0.3-1.3,0.9c15,0.6,29.4,1.1,43.8,1.7c0-0.5,0.1-1,0.1-1.5
		c-4.9-0.8-9.8-1.6-14.8-2.4c7.8-2.1,15.2-3.9,22.8,1.4C569.7,31.5,576,32.9,581.6,35.1z M93.3,63.7c0.1,0.7,0.2,1.4,0.2,2.2
		c6-1.2,12.1-2.4,18.1-3.6c-0.1-0.5-0.2-1.1-0.2-1.6c-1.7-0.2-3.4-0.4-5.1-0.5c-0.2-0.5-0.5-1-0.7-1.4c1.4-1,2.7-2.6,4.2-2.9
		c8.8-1.6,17.7-2.8,26.5-4.2c-14.6-0.3-28.9,0.8-43.1,6.8c4.5,0.9,8.1,1.7,11.7,2.5c0,0.4-0.1,0.8-0.1,1.3
		C101,62.7,97.1,63.2,93.3,63.7z M118,361.2c-0.5,0.3-1,0.6-1.5,0.9c5.4,15.6,12,30.6,24.4,42.3C133.2,390,125.6,375.6,118,361.2z
		 M85.5,311c-0.4,0.2-0.8,0.4-1.1,0.6c3,11.1,14.2,29.3,21.5,32.6C99.1,333.1,92.3,322.1,85.5,311z M401.6,478.8c0.3,0,0.6,0,0.8,0
		c0-16.6,0-33.3,0-49.9c-0.3,0-0.6,0-0.8,0C401.6,445.5,401.6,462.1,401.6,478.8z M369.6,31.6c0.3,0.5,0.6,0.9,0.9,1.4
		c10.7-1.1,21.5-2.2,32.2-3.2c-0.6-1.7-1.3-2.5-1.9-2.4c-9.6,0.7-19.3,1.4-28.9,2.3C371.1,29.7,370.4,30.9,369.6,31.6z M274.5,433.2
		c0.1,0.5,0.2,1.1,0.3,1.6c8.8-1.3,17.5-2.6,26.3-3.9c-0.1-0.6-0.2-1.1-0.3-1.7C291.6,427.7,283.1,430.4,274.5,433.2z M143.2,369.5
		c-1.7,2.6-3.1,4.6-4.2,6.8c-0.5,1-0.8,2.9-0.3,3.4c3.2,3.3,6.6,6.3,10.7,10.1c-2.8-4.6-5.1-8.3-7.5-12.1c1.9-1.3,3.4-2.4,5.2-3.6
		C145.8,372.5,144.8,371.3,143.2,369.5z M320.9,431.8c5.2,3.3,10.3,6.6,16.1,10.3C329.8,429.2,329,428.7,320.9,431.8z M129.5,360.3
		c-1.1,6.4,0,8.9,5.1,11.5C138.3,367.4,136.2,362.3,129.5,360.3z M183.7,424.8c0.1-0.6,0.2-1.1,0.4-1.7c-1.9-1.3-3.6-2.9-5.6-3.7
		c-0.8-0.3-2.2,1.2-3.4,2c1.5,1.6,2.9,3.6,4.7,4.8C180.5,426.6,182.3,425.3,183.7,424.8z M114.2,356c0.6-0.4,1.3-0.8,1.9-1.2
		c-1.4-2.2-2.8-4.4-4.2-6.6c-0.9,0.6-2.6,1.2-2.6,1.9C109.1,353.5,110.9,355.5,114.2,356z M596.6,93.4c1.8-3.8,3.3-7-1.2-10.5
		C593.7,86.7,592,89.9,596.6,93.4z M533.1,407.3c-4.2-2.2-4.2-2.2-5.8,1.8C531.4,411.3,531.4,411.3,533.1,407.3z"/>
	<path d="M406.9,551c-3.4,2.3-5.5,3.9-7.7,5.1c-0.9,0.5-2.5,0.3-3.4-0.2c-7.7-4.6-16.2-16.3-17.9-25.5c4.2,5.1,8.7,10,12.6,15.3
		c3,4.1,6.2,6.7,11.5,5.3C403,550.7,404.2,551,406.9,551z"/>
	<path d="M346.5,468.9c2.7,9.3,5.2,17.9,8,27.7C346.8,487.9,342.5,473.6,346.5,468.9z"/>
	<path class="st3" d="M106.7,318.4c-1.5-0.6-3.1-1.2-5.2-2.1c4.6-2.2,5.6-5.7,3.3-8.9c-3.5-5-7-10.1-10.6-15.1
		c-1.9-2.6-2.5-5.1-1.1-8.3c4.9-10.6,9.6-21.2,14.4-31.8c4.3-9.5,8.6-19.1,12.9-28.6c0.4-0.9,0.5-1.8,0.4-3
		c-13.5,19.2-21.5,41.1-31.2,62.6c-3.8-6-6.5-11.5-3.7-18.7c7.1-18.1,13.8-36.4,20.6-54.6c0.6-1.5,1.1-3,1.2-4.7
		c-6.9,8.3-11.5,17.9-15,27.9c-3.4,10-6.4,20.1-9.8,31c-3-6.7-4.2-12.2-1.3-19c6.7-15.7,12.5-31.9,18.5-47.9
		c0.6-1.5,0.8-3.1,1.1-4.6c-0.6-0.2-1.2-0.4-1.8-0.7c-6.8,17.3-13.5,34.5-20.3,51.8c-0.9-0.2-1.9-0.5-2.8-0.7
		c0.7-6.8,0.9-13.7,2.4-20.3c2.5-11.5,5.8-22.8,8.5-34.3c0.7-2.8,0.1-5.9,0.1-8.9c-0.4-0.1-0.8-0.1-1.2-0.2c-3.6,15-7.1,30-10.7,45
		c-0.4,0-0.8,0-1.2,0c-0.4-1.3-0.9-2.6-1.2-3.9c-5.7-20.7-11.3-41.4-17.1-62.1c-2.9-10.2-6.3-20.3-9.1-30.5
		c-0.9-3.1-0.4-6.6-0.8-9.9c-0.2-1.6-1.1-4.4-1.7-4.4c-1.9,0-4.6,0.4-5.7,1.7c-2,2.5-3.1,5.7-5.2,9.8c-0.7-6.7-1.2-12.2-1.8-18.4
		c2.3,2.3,4.1,4.1,6.2,6.1c1-7.9,1.8-14.6,2.6-21.3c2.5,7.6,2,16.5,8.9,22.1c2-5.9,4.1-12,6.4-18.6c-1.7,0.7-3.1,1.3-4.5,1.9
		c2.4-5.8,4.3-11.6,7.2-16.9c1.1-2,4.4-2.9,7.2-3.5c-1.7,1.5-3.9,2.7-5.1,4.5c-0.9,1.4-0.5,3.5-0.7,5.3c1.6,0.1,3.5,0.8,4.7,0.1
		c9.5-4.7,19.8-5.3,30.1-6.6c16-2,32-4.1,48-6.3c2.1-0.3,4.2-1.1,6.8-1.8c-0.2-2.1-0.3-4.1-0.6-6.8c3.8-0.7,8.3-1.5,13-2.4
		c-1.4,3.7-8.8,0.7-7,7.4c9.9-2,19.6-3.9,29.3-5.9c0-0.5,0-1,0-1.4c-4.5-0.6-9-1.1-13.4-1.7c0-0.4,0.1-0.7,0.1-1.1
		c4.6,0.3,9.3,0.5,14.3,0.8c0.2-1.1,0.4-2.2,0.6-3.7c1.7,0.2,3.3,0.3,4.6,0.5c-0.6,1.8-1,3.3-1.5,4.9c1.6,0.1,3.3,0.5,4.7,0
		c1.1-0.4,1.9-2,3.3-3.6c14.5,3.1,29.5-3.2,44.8-5.6c31-5,61.8-9.3,93.4-8.2c12.3,0.4,25-1.4,37.1-3.8c18.6-3.7,37.1-5.7,56-5.5
		c26.3,0.3,52.6,0,78.9,0.1c11.6,0,23,1.3,33.6,6.1c2.5,1.1,4.9,2.6,7.3,4c-0.1,0.5-0.2,1-0.2,1.5c-9.7,0.6-19.4,1.7-29.1,1.8
		c-21,0.3-42-0.4-62.9,0.2c-16.3,0.5-32.5,2.9-48.8,3.7c-14.1,0.7-28.3-0.1-42.5,0.6c-18.3,0.8-36.6,1.8-54.7,3.7
		c-38.6,4.1-77,9-115.6,13.1c-9.9,1.1-20,0.1-30,0.5c-4.7,0.2-9.3,1.3-14,2.1c0,0.5,0.1,1,0.1,1.5c0.5,0.1,1,0.3,1.6,0.3
		c44.6,0.7,88.9-1.4,132.8-9.7c26.2-4.9,52.6-9.5,79.4-8.1c35.8,1.7,71.2-2.5,106.8-3.8c20.1-0.7,40.3-0.3,60.5-0.6
		c5.6-0.1,11.3-0.8,16.9-1.1c7.2-0.4,12.2,2.3,15.6,9.1c6.9,13.9,9,28.6,8.5,43.7c-1.6,44.2-5.4,88-15.3,131.3
		c-3.8,16.7-6,33.8-10.3,50.4c-3,11.5-8.1,22.5-12.4,33.6c-2.6,6.6-5.7,13-8.5,19.5c0.3,0.2,0.7,0.5,1,0.7c1.6-1.4,3.3-2.8,5.8-4.9
		c0.2,3.1,0.1,5.5,0.7,7.7c0.3,1.5,1.6,2.8,2.4,4.1c0.8-1.2,2.1-2.4,2.4-3.7c2.4-9,4.6-18,6.9-27c0.3-1.1,0.9-2.1,1.4-3.3
		c2,4,2.3,9.1,0.2,16.8c-1.8,6.6-4.2,12.9-6.5,19.4c-0.3,0.9-0.9,2.3-1.5,2.4c-6,0.5-5.3,5.6-6.2,9.3c-1.2,5.5-1.8,11.2-2.9,16.7
		c-0.4,1.8-1.2,3.7-2.2,5.3c-1.9,3-0.9,5.3,1.6,6.8c2.9,1.7,3.7-1,4.4-3c3.3-9.1,6.5-18.1,9.8-27.2c0.6-1.6,1.4-3.2,2.7-4.6
		c-1.3,13.3-10.7,24.5-9.3,38.8c1.8-0.5,3.4-0.9,5.2-1.5c-2.7,2.4-5.1,4.6-7.4,6.7c-2.6-2.5-5.2-4.8-7.7-7.2c-0.5,0-1-0.1-1.5-0.1
		c2.2,8.3-3.5,9.7-8.5,11.7c-14.1,5.8-28.9,7.8-44,7.6c-16.1-0.1-32.3-0.8-49.3-1.3c11.9-23.1,28-42.6,41-64.1
		c-0.4-0.3-0.7-0.6-1.1-0.9c-2.5,2.7-5.1,5.2-7.4,8.1c-2.3,3-4.2,6.3-7,10.4c-1-1.9-1.8-3.3-3.2-5.9c-7.7,15.6-15.1,29.4-21.2,43.7
		c-3.2,7.5-7.9,9.3-15.6,8.6c11.3-29.6,31.4-54.4,43.6-83.4c-1.6,1.9-3.3,3.7-4.8,5.7c-1.6,2.1-3.3,4.2-4.6,6.6
		c-12.8,23.3-25.7,46.6-38.2,70.1c-1.9,3.6-3.9,5.2-7.7,5.7c-4.4,0.6-8.9,1.5-13.2,2.8c-5.6,1.6-9.5,5.5-9.8,11.4
		c-0.6,12.6-0.8,25.2-0.7,37.8c0.1,7.1,1,14.3,1.8,21.4c0.1,1.3,1.4,2.5,2.9,3.1c0-7.2,0.2-14.5-0.1-21.7
		c-0.2-5.1-0.7-10.1-1.5-15.1c-1.7-10.5,0.4-20.6,2.7-30.6c0.2-0.9,1.7-2,2.7-2.2c3.9-0.6,7.9-0.9,11.7-1.3c0.3,0.7,0.6,1.1,0.5,1.2
		c-5.8,7.2-5.5,15.7-5.2,24.3c0.7,19.1,1.2,38.2,2.3,57.3c0.3,5.3,2.2,10.6,3.3,16c4.6-1.9,5.6-5,4.3-8.2c-1.8-4.3-3-8.9-4.4-13.4
		c0.7-0.2,1.5-0.4,2.2-0.6c2.2,9.9,4.4,19.9,6.6,29.8c-5.5-4.4-12.9-5.8-15.2-13.3c-2-6.4-5-12.5-7.7-19c-1,1.4-2.2,3.2-4.4,6.1
		c-5.6-9.1-11.7-17.2-15.8-26.2c-5.6-12.4-9.5-25.5-14.3-38.2c-1-2.6-2.5-5.5-4.6-7.2c-2.6-2-4-4.1-3.3-7.1c1.4-5.6,2.8-11.3,5-16.6
		c2-5.1,5-9.7,7.8-14.9c3.4,2.1,4.3,4.2,2.2,8.1c-4.1,7.5-7.6,15.4-11.3,23.1c0.7,0.3,1.4,0.7,2,1c10.3-18.7,20.6-37.5,31.6-57.5
		c-9.1,5.7-11.6,14.3-15.9,21.7c-5.7-3.9-2.6-8.3-2-13.1c-1.1,1.4-2.5,2.7-3.3,4.2c-5.5,10.3-11,20.5-16.3,30.9
		c-4.6,9.1-5.7,9.9-16.2,9.5c7.7-16.1,15.4-32.4,23.1-48.6c-0.7-0.4-1.3-0.7-2-1.1c-3.2,5.5-6.8,10.8-9.7,16.5
		c-4.9,9.6-9,19.6-14,29.2c-3.1,6-3.5,5.8-11.1,6.1c2.3-3.2,4.4-6.2,7.2-10.1c-4,0.4-6.9,0.6-11.7,1.1c9.5-17.8,18.4-34.5,27.2-51.2
		c-18,15.6-22.2,39.2-34,58.6c0-1.3,0-2.5,0-4.2c-6.4,2.1-12.3,4.1-19.8,6.6c4.2-8.6,7.5-16,11.3-23.1c3.9-7.2,7.5-14.8,12.8-20.8
		c3.4-3.9,3.6-7.8,4-12.5c-2.9,4.1-6.3,7.9-8.7,12.3c-7.5,13.5-14.8,27.2-21.8,41c-1.7,3.4-3.5,5.1-7.5,4.6c-3.4-0.5-7-0.1-11.4-0.1
		c9.9-21.6,23.2-40.7,33.6-61.6c-1.6,1.7-3.3,3.3-4.8,5.1c-1.6,1.9-3.2,3.9-4.6,5.9c-1.5,2-3,4-4.2,6.2
		c-7.2,13.1-14.4,26.2-21.2,39.6c-2,3.9-4.2,5.2-8.4,4.9c-6.6-0.4-13.3-0.1-20.9-0.1c6.6-13.5,12.4-26.7,22.9-37.2
		c-4.8,10.7-9.6,21.3-14.3,32c0.5,0.3,1,0.6,1.6,0.9c2.7-4.5,5.6-8.8,8.1-13.4c2.6-4.8,4.6-10,7.2-14.8c2.5-4.7,5.4-9.2,8.4-13.6
		c3-4.6,6.2-9,8.8-14.2c-3.6,2.3-7.4,4.4-10.8,7c-3.7,2.8-7.2,5.9-10.3,9.3c-3,3.3-5.2,7.2-8.8,10.4c4-10,8-19.9,12-29.9
		c-0.5-0.2-0.9-0.4-1.4-0.5c-13.1,19.7-18.4,42.9-28.2,64.8c-7.4-2.2-14.5-4.3-22.6-6.7c3-6,5.8-11.2,8.2-16.6
		c0.6-1.3,0.8-3.9,0-4.6c-2.8-2.4-2.2-4.6-1-7.5c4.3-9.9,8.5-19.9,12.6-29.9c0.9-2.2,1.2-4.6,1.8-6.9c-0.6-0.2-1.3-0.5-1.9-0.7
		c-8.3,19.8-16.6,39.6-25,59.7c-1.1-0.9-2.2-1.7-3.3-2.7c-7.3-6.6-8-7.8-4.1-16.6c8-18.1,16.7-35.8,24.7-53.9
		c1.8-4.1,2-8.9,1.8-13.6c-10.4,18.5-20.8,37.1-31.3,55.8c2.4-1.8,4.8-3.6,8.2-6.2c-3.4,8.2-6.3,15.2-9.5,22.9
		c-9-7.6-17.5-14.6-25.8-22c-0.9-0.8-0.8-3.4-0.2-4.8c6.3-15,12.9-29.9,19.4-44.9c1.5-3.5,3.1-6.9,4.3-10.5
		c-14.8,15.8-19.2,36.9-27.8,56.1c-1.5-0.8-2.7-1.4-3.8-2.1c-0.7-0.4-1.3-0.9-2.4-1.6c7.3-19.3,14.6-38.5,21.9-57.7
		c-0.6-0.3-1.2-0.6-1.8-0.9c-1.1,1.7-2.4,3.2-3.1,5c-6,15-11.8,30-17.8,45c-0.8,2-1.8,3.9-3.1,6.6c-3.9-5.5-7.6-10.1-5-16.7
		c4.7-12.1,9.5-24.1,14.4-36.1c2.2-5.5,4.8-10.8,7.2-16.2c-0.5-0.3-1.1-0.6-1.6-0.9c-2.3,3.6-5.1,7-6.8,10.9
		c-5.4,12.7-10.2,25.7-15.4,38.4c-1.4,3.3-3.6,6.3-5.9,10.2c-1.7-3.1-3-5.4-4.5-8.2c2-0.5,3.5-0.9,5.6-1.5
		c-4.6-6.5-2.3-12.7,0.1-18.7c6.2-15.2,12.7-30.4,19.2-45.9c-15.1,14.6-17.8,35-25.3,54c-3.1-4.2-5.9-7.5-7.9-11.2
		c-0.7-1.3-0.1-3.8,0.6-5.4c9-20.2,18.2-40.3,27.3-60.5c0.7-1.6,1.4-3.3,2.1-5c-0.4-0.2-0.7-0.5-1.1-0.7c-3,4.5-6.4,8.9-8.8,13.7
		c-4.1,8.4-7,17.2-11.2,25.6c-4.5,9-9.8,17.7-14.7,26.5C106.9,316.7,106.8,317.6,106.7,318.4L106.7,318.4z M291.9,405.1
		c0.6,0,1.2,0,1.8,0c8.8-21,24.2-38.6,30.8-60.8c-4,5.1-7.5,10.5-10.7,16c-7.4,12.9-14.8,25.8-21.9,38.8
		C291.2,400.7,291.9,403.1,291.9,405.1z M505,399.3c0.6,0.2,1.1,0.5,1.7,0.7c11.1-18.2,20.2-37.2,25.9-57.8
		c-0.5-0.2-1.1-0.5-1.6-0.7C522.4,360.7,513.7,380,505,399.3z M398.7,396.3c13.9-15.6,17.1-35.7,24.3-54.3c-1.7,0.5-2.9,1.5-3.5,2.8
		c-4.2,10.1-8.2,20.3-12.3,30.4C404.4,382.2,401.6,389.2,398.7,396.3z M446.9,388.8c0.4,0.3,0.9,0.5,1.3,0.8
		c11.9-11.5,31.7-43.6,32.1-53.1C468.8,354.5,457.8,371.7,446.9,388.8z M138.6,224.8c-0.7-0.3-1.4-0.6-2.1-0.9
		c-8.1,15.5-15.4,31.3-20.1,48.3c0.7,0.3,1.4,0.6,2.1,0.9C125.2,257,131.9,240.9,138.6,224.8z M374.3,395.8
		c-0.6-0.3-1.2-0.5-1.8-0.8c-7.4,14.7-14.8,29.3-22.3,44c0.5,0.3,1,0.5,1.6,0.8C362.3,426.7,369.3,411.7,374.3,395.8z M493,346.3
		c-0.6-0.4-1.2-0.9-1.7-1.3c-9,13.5-18.1,27-27.1,40.6c0.5,0.3,1,0.7,1.5,1C477.6,375.1,485.6,360.9,493,346.3z M492.9,385.4
		c0.6,0.4,1.1,0.7,1.7,1.1c7.7-11.5,15.4-23,23.2-34.6c-0.5-0.3-0.9-0.6-1.4-1C505.8,360.7,498.6,372.6,492.9,385.4z M358.9,445.9
		c0.5,0.2,1,0.4,1.5,0.7c6.3-7,12.4-22.9,10.9-31.2C367.2,425.5,363.1,435.7,358.9,445.9z M493.9,368.6c0.4,0.1,0.9,0.1,1.3,0.2
		c2.1-6.9,4.2-13.8,6.4-20.8c-0.4-0.1-0.9-0.3-1.3-0.4C494.8,353.6,492.6,360.6,493.9,368.6z M371.5,454.2c-2.4-1.3-4.1-2.7-4.6-2.3
		c-1.8,1.1-3.1,2.9-4.6,4.4c1.1,0.9,2.7,2.8,3.2,2.5C367.4,458,368.9,456.3,371.5,454.2z"/>
	<path class="st3" d="M569.9,248.1c-0.3-2.9-0.7-5.8-1.1-9.6c-3.1,6.7-5.9,12.9-8.8,19.2c2.1-0.3,4.4-0.6,7.2-1
		c-0.3-2.5-0.5-4.9-0.8-7.6c1.4,0.1,2.7,0.2,4.5,0.3c-1.9,5.4-3.6,10.3-5.5,15.7c-1.4-1.7-2.5-3-4.3-5.2c-2,6.6-3.9,12.2-5.2,17.9
		c-0.3,1.2,1.8,3,3.3,5.2c2-4.4,3.5-7.8,5-11.1c-0.6,17-5.1,32.9-11.6,48.9c-2.1-5.9-4.5-11.2-5.7-16.7c-0.5-2.1,1.7-4.8,2.8-7.2
		c1.4-2.8,2.9-5.6,4.4-8.6c-1.4-0.8-2.6-1.5-4.2-2.3c2.5-12.4,4.9-24.8,7.6-37.1c10.5-46.6,16.9-93.6,17.5-141.4
		c0.3-19.5-1.7-38.5-12.7-55.5c11.3,8.4,17.5,19.9,21.3,33.8c1.1-1.8,2-3.3,2.3-3.8c2.3,26.1,2.7,52.9-2.9,79.6
		c-2.9,14.1-2.9,28.8-4.9,43.1c-1.3,8.8-3.9,17.4-5.9,26.1c-0.3,1.2-1.1,3-0.6,3.7c3.5,4.6-0.9,9.1,1,13.6
		C571.6,248,570.7,248.1,569.9,248.1z"/>
	<path class="st3" d="M614.9,136.1c-3.5-0.1-5.4,1.1-5.5,5.2c-0.1,3.8-1.2,7.5-2,11.3c-1.2,6.1-2.3,12.2,2.9,17.5
		c-0.5,0.3-1.1,0.6-1.6,1c-0.8-1.1-2.3-2-2.4-3.2c-0.7-4.9-1.2-9.9-1.4-14.9c-0.6-22.5-1-44.9-1.9-67.4c-0.1-2.9-2.3-5.8-3.8-8.6
		c-0.9-1.7-2.2-3.2-3.8-5.4c1.8-0.2,3-0.3,4.5-0.5c0.4-3.5,0.7-7.1,1.2-11c-2.3,0.3-4.1,0.5-5.9,0.8c-0.2-0.5-0.3-1-0.5-1.5
		c1.3-0.5,2.6-0.9,4.5-1.5C595.4,43.7,588,31.3,575,20.9c11.8,2.4,19.2,8.6,24.8,17c11.4,17,16.1,36.2,16.2,56.3
		c0,11.2-2.5,22.4-3.4,33.6c-0.2,2.8,1.4,5.7,2.2,8.5C614.8,136.3,614.9,136.1,614.9,136.1z"/>
	<path class="st3" d="M49.4,152.3c10.2,27.5,17.8,55.8,22.2,84.9c-5.2-9.7-12.5-18.9-8.4-31.8c-2,0.9-3.5,1.6-6.4,2.9
		c-3.1-18.8-6.2-37.2-9.2-55.6C48.1,152.6,48.7,152.5,49.4,152.3z"/>
	<path class="st3" d="M589.2,73c-1.2-1.5-2.3-3-3.9-5.1c-0.5,2.8-0.9,5-1.5,8.3c-1.9-4.9-3.2-8.6-4.7-12.3
		c-3.4-8.1-8.9-13.3-17.8-15.8c-7-1.9-13.3-6-19.6-9.8c12.8-3.6,27.6,3.2,35.7,15.2c1.5,2.2,4,4.3,6.4,5.4
		C590.2,61.9,588.8,67.7,589.2,73z"/>
	<path class="st3" d="M186.1,412.1c-3.7-2.1-7.4-4.2-11.2-6.3c-0.3,1-0.8,2.6-1.2,4.1c-10.2-7.9-23.2-24.8-25.5-33.2
		c7.9,3,25.3,18.2,38.7,33.9C186.7,411,186.4,411.6,186.1,412.1z"/>
	<path class="st3" d="M581.6,35.1c-5.6-2.3-11.9-3.7-16.8-7c-7.6-5.3-15-3.4-22.8-1.4c4.9,0.8,9.8,1.6,14.8,2.4c0,0.5-0.1,1-0.1,1.5
		c-14.4-0.6-28.8-1.1-43.8-1.7c0.8-0.6,1.1-0.9,1.3-0.9c16.9-3.6,34.1-5.2,51.2-6.8c1-0.1,2.4,0.2,3.2,0.8
		c4.7,3.7,9.2,7.6,13.8,11.4C582.2,34,581.9,34.6,581.6,35.1z"/>
	<path class="st3" d="M93.3,63.7c3.8-0.5,7.7-1,11.5-1.5c0-0.4,0.1-0.8,0.1-1.3c-3.6-0.8-7.2-1.5-11.7-2.5c14.2-6,28.5-7.1,43.1-6.8
		c-8.8,1.4-17.7,2.6-26.5,4.2c-1.5,0.3-2.8,1.9-4.2,2.9c0.2,0.5,0.5,1,0.7,1.4c1.7,0.2,3.4,0.4,5.1,0.5c0.1,0.5,0.2,1.1,0.2,1.6
		c-6,1.2-12.1,2.4-18.1,3.6C93.5,65.2,93.4,64.5,93.3,63.7z"/>
	<path class="st3" d="M118,361.2c7.6,14.4,15.2,28.8,22.9,43.2c-12.4-11.7-18.9-26.7-24.4-42.3C117,361.8,117.5,361.5,118,361.2z"/>
	<path class="st3" d="M85.5,311c6.8,11.1,13.5,22.1,20.3,33.2c-7.3-3.3-18.4-21.5-21.5-32.6C84.8,311.4,85.1,311.2,85.5,311z"/>
	<path class="st3" d="M401.6,478.8c0-16.6,0-33.3,0-49.9c0.3,0,0.6,0,0.8,0c0,16.6,0,33.3,0,49.9
		C402.2,478.8,401.9,478.8,401.6,478.8z"/>
	<path class="st3" d="M369.6,31.6c0.8-0.7,1.6-1.9,2.4-2c9.6-0.9,19.2-1.6,28.9-2.3c0.6,0,1.3,0.7,1.9,2.4
		c-10.7,1.1-21.5,2.2-32.2,3.2C370.2,32.5,369.9,32,369.6,31.6z"/>
	<path class="st3" d="M106.7,318.4c2.2,4.9,4.5,9.9,6.6,14.8c0.8,1.8,1.2,3.7,0.9,5.8c-1.5-3.4-3.1-6.8-4.6-10.2
		c-6.1,1.8-8.1,0.4-11.1-7.9C101.1,320.1,103.9,319.3,106.7,318.4C106.7,318.4,106.7,318.4,106.7,318.4z"/>
	<path class="st3" d="M274.5,433.2c8.6-2.7,17.1-5.5,26.3-3.9c0.1,0.6,0.2,1.1,0.3,1.7c-8.8,1.3-17.5,2.6-26.3,3.9
		C274.7,434.3,274.6,433.7,274.5,433.2z"/>
	<path class="st3" d="M143.2,369.5c1.6,1.8,2.7,3.1,4,4.6c-1.8,1.2-3.4,2.3-5.2,3.6c2.3,3.8,4.6,7.5,7.5,12.1
		c-4.1-3.8-7.5-6.8-10.7-10.1c-0.5-0.6-0.2-2.4,0.3-3.4C140.1,374.1,141.5,372.1,143.2,369.5z"/>
	<path class="st3" d="M320.9,431.8c8.1-3.1,8.9-2.6,16.1,10.3C331.2,438.4,326.1,435.1,320.9,431.8z"/>
	<path class="st3" d="M129.5,360.3c6.7,2,8.9,7.1,5.1,11.5C129.4,369.2,128.3,366.8,129.5,360.3z"/>
	<path class="st3" d="M183.7,424.8c-1.3,0.5-3.2,1.8-3.9,1.3c-1.8-1.2-3.2-3.1-4.7-4.8c1.1-0.7,2.6-2.2,3.4-2c2,0.8,3.8,2.4,5.6,3.7
		C183.9,423.6,183.8,424.2,183.7,424.8z"/>
	<path class="st3" d="M114.2,356c-3.3-0.5-5.1-2.5-5-5.9c0-0.6,1.7-1.2,2.6-1.9c1.4,2.2,2.8,4.4,4.2,6.6
		C115.4,355.2,114.8,355.6,114.2,356z"/>
	<path class="st3" d="M596.6,93.4c-4.6-3.4-2.8-6.7-1.2-10.5C599.9,86.3,598.4,89.6,596.6,93.4z"/>
	<path class="st3" d="M533.1,407.3c-1.7,4-1.7,4-5.8,1.8C528.9,405.1,528.9,405.1,533.1,407.3z"/>
	<path d="M291.9,405.1c0-2-0.7-4.4,0.1-5.9c7.1-13,14.5-25.9,21.9-38.8c3.2-5.6,6.7-11,10.7-16c-6.6,22.1-22,39.7-30.8,60.8
		C293.1,405.1,292.5,405.1,291.9,405.1z"/>
	<path d="M505,399.3c8.7-19.3,17.3-38.5,26-57.8c0.5,0.2,1.1,0.5,1.6,0.7c-5.7,20.6-14.8,39.6-25.9,57.8
		C506.2,399.8,505.6,399.5,505,399.3z"/>
	<path d="M398.7,396.3c2.8-7,5.7-14.1,8.5-21.1c4.1-10.2,8.1-20.3,12.3-30.4c0.5-1.3,1.8-2.2,3.5-2.8
		C415.9,360.6,412.7,380.7,398.7,396.3z"/>
	<path d="M446.9,388.8c11-17.2,21.9-34.3,33.4-52.3c-0.4,9.5-20.2,41.6-32.1,53.1C447.7,389.4,447.3,389.1,446.9,388.8z"/>
	<path d="M138.6,224.8c-6.7,16.1-13.4,32.2-20.1,48.3c-0.7-0.3-1.4-0.6-2.1-0.9c4.7-16.9,12.1-32.8,20.1-48.3
		C137.2,224.2,137.9,224.5,138.6,224.8z"/>
	<path d="M374.3,395.8c-4.9,16-12,30.9-22.5,44c-0.5-0.3-1-0.5-1.6-0.8c7.4-14.7,14.8-29.3,22.3-44
		C373.1,395.3,373.7,395.5,374.3,395.8z"/>
	<path d="M493,346.3c-7.5,14.5-15.4,28.7-27.3,40.2c-0.5-0.3-1-0.7-1.5-1c9-13.5,18.1-27,27.1-40.6
		C491.9,345.4,492.4,345.9,493,346.3z"/>
	<path d="M492.9,385.4c5.8-12.8,12.9-24.7,23.4-34.4c0.5,0.3,0.9,0.6,1.4,1c-7.7,11.5-15.4,23-23.2,34.6
		C494,386.2,493.4,385.8,492.9,385.4z"/>
	<path d="M358.9,445.9c4.2-10.2,8.3-20.4,12.5-30.6c1.5,8.3-4.7,24.2-10.9,31.2C359.9,446.3,359.4,446.1,358.9,445.9z"/>
	<path d="M493.9,368.6c-1.3-8,0.9-15,6.4-21c0.4,0.1,0.9,0.3,1.3,0.4c-2.1,6.9-4.2,13.8-6.4,20.8
		C494.8,368.7,494.3,368.6,493.9,368.6z"/>
	<path d="M371.5,454.2c-2.6,2.1-4.1,3.7-6,4.6c-0.6,0.3-2.1-1.6-3.2-2.5c1.5-1.5,2.9-3.3,4.6-4.4C367.5,451.6,369.1,453,371.5,454.2
		z"/>
</g>
<g id="Layer_2">
	<g>
		<path d="M241.1,251.7c0.7,6.7-0.9,12.5-4.9,17.3c-4,4.8-9.9,7.7-17.8,8.7c-2,0.2-4.2,0.1-6.5-0.3c-4.3-0.7-6.5-1.1-6.7-1.1
			c-2.2-0.2-4.5-0.5-6.8-0.7c-2.3-0.3-4.3-1.1-6.1-2.5c-2.7-1.9-5.1-5.3-7.1-10c-2.5-5.5-4.3-9-5.5-10.3c-0.8-0.6-1.8-1.8-3-3.5
			c-0.4-1.3-0.3-2.7,0.3-4.1c0.6-1.4,1.5-2.3,2.5-2.8c0.5-0.2,1.5-0.4,3-0.6c3.2-0.3,7.1-0.4,11.8-0.1c4.7,0.3,7.3,0.7,7.9,1.3
			c0.6,0.6,1.7,3.8,3.2,9.6c1.4,5.4,2.9,8.3,4.6,8.7c0.4,0.1,0.8,0.2,1.3,0.1c1.7-0.2,3.1-1.8,4-4.8c0.9-3,1.2-6.3,0.8-9.9
			c-0.8-7.9-3.8-12.9-9-15c-11.9-4.9-20.4-9.7-25.5-14.4c-5.9-5.4-9-12.3-9.3-20.5c-0.3-6.9,1.5-14,5.3-21.4c3.8-7.4,8.1-12,13-13.7
			c2-0.7,8.6,0.7,19.7,4c2.7,0.7,5.5,1.5,8.3,2.3c2.8,0.8,5.1,2.2,7,4.1c2.9,2.9,4.7,8.3,5.5,16.1c0.2,1.5,0.3,3.6,0.5,6.4
			c0.2,2.5,0.3,4.2,0.4,5.2c0.2,0.6,0.6,1.6,1.3,3c0.6,1,0.8,1.9,0.9,2.9c0.2,4-1.2,6.4-4.3,7.2c-1.8,0.5-5.2,0.1-10.3-1
			c-5.6-1.2-9.3-2.7-10.9-4.5c-0.2-0.3-0.4-1.2-0.6-2.7c-0.1-1.4-0.3-4.5-0.5-9.3c-0.2-4.8-0.4-8.4-0.6-10.5c-0.4-3.9-1.1-5.8-2-5.6
			c-2.8,0.5-4.9,2.7-6.4,6.8c-1.5,4.1-1.9,8.5-1.4,13.4c0.9,8.2,3.9,13.7,9.1,16.7c5.8,2.9,11.6,5.8,17.4,8.6
			c5.5,2.8,9.5,5.8,11.8,9C238.4,238,240.3,243.9,241.1,251.7z"/>
		<path d="M318.1,260.3c0,1.3-0.4,2.4-1.3,3.4c-0.9,1-2,1.5-3.3,1.4c-11.4-0.4-17.9-1.8-19.5-4.4c-0.2-0.3-0.3-0.7-0.4-1.1
			c0-0.5,0.1-1,0.5-1.6c0.4-0.6,0.5-1.1,0.6-1.5c0-0.4,0.2-0.8,0.4-1.2c0.1-0.7,0-2.3-0.4-4.8c-1,0.9-2.4,3.3-4.2,7.1
			c-1.9,4.1-3.6,7.1-5.1,8.8c-2.6,3-5.8,4.7-9.5,5.1c-2.2,0.2-4.4-0.4-6.7-1.9c-1.1-0.7-3-2.3-5.9-4.8c-4.9-4.4-7.5-6.9-7.9-7.3
			c-2.2-2.3-3.4-4.6-3.6-6.9c-0.1-0.7-0.1-1.5,0-2.2c0.9-8.2,5.4-16.3,13.7-24.4c6-5.9,14.7-12.3,26.1-19.4
			c-0.3-2.9-1.2-4.7-2.8-5.4c-1-0.4-4,0.9-9.2,4.1c-5.2,3.2-8.8,5.8-10.8,7.8c-0.7,0.8-1.7,1.9-3.2,3.4c-1.5,1.1-2.8,1.5-4.1,1.3
			c-1-0.2-3.3-1.6-6.9-4.2c-3.6-2.7-5.6-4.5-5.9-5.4c-1-2.4-0.4-4.4,1.7-6c0.1-0.1,1.8-0.8,5.3-2.2c3.2-2.2,6.3-4.3,9.5-6.5
			c6.7-4.1,12.5-6.6,17.4-7.3c2.1-0.3,4.6,0.5,7.4,2.5c2.6,1.8,5.2,3.7,7.8,5.4c2.6,1.8,5.3,3.5,8,5.1c3.2,2.2,4.9,4.5,5.1,6.9
			l5.4,51.5C317.5,258,318.1,259.5,318.1,260.3z M292.1,222.8c-4.3,2.2-7.8,5.2-10.6,9.1c-2.1,3.2-4.1,6.3-6.2,9.3
			c-1.7,2.1-3.2,4.8-4.6,8c-1.4,3.2-2,5.6-1.8,7c0.1,0.7,0.4,1.1,0.9,1c1.9-0.2,5.7-4.8,11.5-13.7
			C287.1,234.7,290.7,227.8,292.1,222.8z"/>
		<path d="M344.8,153.4c0.1,0.6,0,1.5-0.3,2.7c-0.3,1.1-0.5,1.8-0.5,2.1c-0.4,1.9-0.6,4.7-0.7,8.6l8.8,83.7c0.1,1.1,0.5,2,1.1,2.8
			c0.6,0.8,1,1.5,1,2c0.6,5.8-0.2,9.1-2.3,9.7c-0.8,0.3-3.7,0-8.8-0.9c-5.1-0.9-8.2-1.7-9.3-2.4c-2.2-1.5-3.3-3-3.5-4.5
			c0-0.4,0.1-0.8,0.4-1.3c0.3-0.5,0.4-1.3,0.3-2.4l-10.1-96.1c-0.1-0.5-0.3-1.1-0.7-1.7c-0.4-0.6-0.6-1.1-0.7-1.7
			c0-2.2,1.5-3.8,4.6-4.9c0.9-0.3,2.8-0.5,5.7-0.6c3.4-0.1,6.3,0.1,8.9,0.6C342.6,150,344.6,151.4,344.8,153.4z"/>
		<path d="M422.1,176.4c-2.6,9.4-5.2,23.6-7.8,42.6c-2.3,17.1-3.3,26.8-3,29.1c0.2,2.3,0.5,4.5,0.7,6.7c0.2,2.9-0.7,4.7-2.7,5.4
			c-2.1,0.6-7.1,0.2-15.1-1c-8-1.3-12.5-2.5-13.5-3.7c-0.5-0.7-0.9-1.7-1-2.9c-0.1-1.3-0.3-2.1-0.5-2.6
			c-5.6-12.8-9.8-23.3-12.5-31.5c-3.4-10.1-6.2-21.4-8.5-33.8c0-0.3-0.2-1-0.5-2.3c-0.3-1-0.5-1.8-0.5-2.4c-0.2-2.1,0.5-3.5,2.3-4.4
			c0.8-0.4,4.3-0.1,10.7,0.7s9.8,1.8,10.5,3c0.3,0.5,0.5,1.1,0.6,1.9c0.1,0.9-0.1,2.1-0.5,3.6c-0.4,1.5-0.6,2.4-0.5,2.9
			c1.7,7,3.4,13.1,4.8,18.5c3.6,12.9,6.1,20.4,7.6,22.8c0.5-8,1.9-18.6,4-31.6c1-6.3,2-12.5,3.1-18.8c0.1-1.7,0.2-3.3,0.3-5
			c0.4-1.9,1.5-3.1,3-3.8c1.1-0.5,4,0,9,1.5C417.4,172.9,420.8,174.6,422.1,176.4z"/>
		<path d="M475.9,157.4c-1.1,0.7-2.6,1.1-4.4,1.2c-0.6,0-1.9-0.2-4-0.5c-2.1-0.3-3.9-0.4-5.3-0.2l-20.8,2.2c-0.9,0.1-2,0.7-3.3,1.8
			c-1.3,1.1-2.4,1.7-3.5,1.7c-1.3,0-3.8-1.8-7.6-5.1c-3.8-3.4-5.7-5.6-6-6.8c-0.2-1.6,0.2-3.2,1.1-4.7c0.9-1.5,2-2.4,3.4-2.8
			c1.8-0.1,4.7-0.4,8.7-0.8c3.4-0.6,6.8-1.2,10.3-1.8c7.1-1.2,12.8-2,17.1-2.5c5.2-0.5,8.2-0.5,9,0c1.8,1.1,3.4,3.2,5,6.2
			c1.6,3,2.5,5.6,2.7,7.9C478.4,155.1,477.6,156.5,475.9,157.4z M487.8,221.4c1,1.3-0.4,5.5-4,12.7c-4,7.7-8.1,13-12.4,16
			c-0.5,0.3-1.3,0.6-2.4,0.7c-3.5,0.4-8.3-0.2-14.2-1.8c-6.3-1.5-10.6-3.5-12.7-5.8c-6-6.3-9.6-15.4-10.9-27.5
			c-1.2-11.4,0.1-21.8,3.8-31c4-10.1,9.8-15.6,17.5-16.6c2.8-0.4,6.3,0,10.4,1.1c5.1,1.4,9.4,3.6,12.9,6.5c0.9,0.7,1.9,3.1,3.1,7.1
			c1.4,4.3,2.3,8.5,2.7,12.7c0.6,6.2,0.1,10.6-1.7,13.1c-9,4-18.4,6.7-28.1,8c0.3,4.5,1.3,9.1,3.1,13.9c1.8,4.8,3.4,7.1,4.7,7.1
			c1.8-0.1,3.8-1.8,6.1-5.2c2-2.9,3.2-5.2,3.5-7.1c0.3-2.8,0.9-5.7,1.7-8.7c1.4-0.3,4.4,0.1,8.8,1.3
			C484.3,219,487,220.2,487.8,221.4z M459.2,182.3c-1.6,0-3.5,2.7-5.7,8c-2.2,5.4-3.3,10.4-3.3,15.1c4.1-0.6,7.2-2,9.5-4
			c1.3-1.2,1.6-5.9,0.7-13.9C460.1,184.1,459.7,182.4,459.2,182.3z"/>
		<path d="M516.4,201.9c0.2,3.4-0.5,5.3-2,5.9c-0.4,0.1-0.9,0.2-1.3,0.3c-2.6,0.3-6.1-0.4-10.3-2.1c-4.2-1.7-7.8-3.8-10.6-6.5
			c-1.2-1.1-1.4-3.2-0.7-6.5c0.8-3.3,1.1-5,1.1-5.1l-5.4-51.5c-0.2-2.4,0.9-4.1,3.6-5.3c0.5-0.2,1.3-0.4,2.3-0.5
			c2.5-0.3,5.5,0,8.9,0.7c3.4,0.7,5.6,1.7,6.5,2.9c0.2,0.3,0.6,2.7,1,7.3l5.8,55.6c0.1,0.5,0.2,1.3,0.5,2.4
			C516.1,200.4,516.3,201.2,516.4,201.9z M518.4,221.6c0.4,0.8,0.6,3,0.7,6.7c0.1,4.8,0.3,7.7,0.4,8.8c0.4,3.6,0.5,6.5,0.3,8.5
			c-0.2,2-1.2,3.3-3,3.9c-1.1,0.4-4.3-0.2-9.7-1.7c-5.7-1.7-9.2-3.3-10.4-4.8c-0.7-0.9-0.7-2.6,0.2-5c0.4-1.1,0.6-2.8,0.4-5.1
			c-0.4-2-0.8-5.8-1.2-11.4c0-3.3,1.2-5,3.6-5.2c2.6-0.1,6.2,0.6,10.9,1.9C515.4,219.5,518,220.7,518.4,221.6z"/>
	</g>
</g>
</svg>
